<svg xmlns="http://www.w3.org/2000/svg" xmlns:xlink="http://www.w3.org/1999/xlink" viewBox="0 0 361.23 223.04"><defs><style>.cls-1{fill:#1393f2;}.cls-2{isolation:isolate;}.cls-3{fill:#e4e3ee;}.cls-4{fill:#b7b6e3;}.cls-5{fill:#919dd6;}.cls-6{fill:#4ccc9e;}.cls-7{fill:#43b58c;}.cls-8{fill:#4cdead;}.cls-9{fill:#d4d5f0;}.cls-10{fill:#c4c3ec;}.cls-11{fill:#fff;}.cls-12{fill:#05d4f5;}.cls-13{fill:#eeeff2;}.cls-14{clip-path:url(#clip-path);}.cls-15{clip-path:url(#clip-path-2);}.cls-16{clip-path:url(#clip-path-3);}.cls-17{clip-path:url(#clip-path-4);}</style><clipPath id="clip-path"><path class="cls-1" d="M186.7,96.16v2.47l-3.64-1-3.22-.84-2.6-.66-1.78-.44V93.22l1.77.44,2.6.66,3.22.84Z"/></clipPath><clipPath id="clip-path-2"><path class="cls-1" d="M194.9,98.61v2.47l-3.18-.89V97.72Z"/></clipPath><clipPath id="clip-path-3"><path class="cls-1" d="M198,99.5V102c-1-.3-2-.59-3.08-.89V98.61C196,98.91,197,99.2,198,99.5Z"/></clipPath><clipPath id="clip-path-4"><path class="cls-1" d="M181.41,109.13v2.47q-2.28-2.73-4.16-5.07c-1.24-1.56-2.4-3-3.45-4.45s-2-2.77-2.92-4.07-1.73-2.58-2.5-3.87V91.67c.77,1.28,1.6,2.58,2.5,3.87s1.87,2.65,2.92,4.07,2.2,2.89,3.45,4.45S179.89,107.31,181.41,109.13Z"/></clipPath></defs><g id="Layer_2" data-name="Layer 2"><g id="Layer_1-2" data-name="Layer 1"><g class="cls-2"><polygon class="cls-3" points="104.34 86.65 108.47 84.25 114.07 87.48 109.94 89.88 104.34 86.65"/><polygon class="cls-4" points="114.92 84.86 119.05 82.46 114.82 89.36 110.69 91.75 114.92 84.86"/><polygon class="cls-5" points="124.68 89.06 128.81 86.66 128.81 88.09 124.68 90.49 124.68 89.06"/><polygon class="cls-3" points="114.16 82.99 118.29 80.59 128.81 86.66 124.68 89.06 114.16 82.99"/><polygon class="cls-5" points="124.68 89.06 124.68 90.49 114.92 84.86 110.69 91.75 104.34 88.08 104.34 86.65 109.94 89.88 114.16 82.99 124.68 89.06"/></g><g class="cls-2"><polygon class="cls-3" points="119.67 77.92 123.8 75.52 129.4 78.75 125.27 81.15 119.67 77.92"/><polygon class="cls-4" points="130.25 76.12 134.38 73.72 130.15 80.62 126.02 83.02 130.25 76.12"/><polygon class="cls-5" points="140.01 80.33 144.14 77.93 144.13 79.36 140.01 81.76 140.01 80.33"/><polygon class="cls-3" points="129.49 74.25 133.62 71.86 144.14 77.93 140.01 80.33 129.49 74.25"/><polygon class="cls-5" points="140.01 80.33 140.01 81.76 130.25 76.12 126.02 83.02 119.67 79.35 119.67 77.92 125.27 81.15 129.49 74.25 140.01 80.33"/></g><g class="cls-2"><polygon class="cls-3" points="134.35 69.18 138.48 66.78 144.08 70.01 139.95 72.41 134.35 69.18"/><polygon class="cls-4" points="144.93 67.38 149.06 64.98 144.83 71.88 140.71 74.28 144.93 67.38"/><polygon class="cls-5" points="154.69 71.58 158.82 69.18 158.82 70.61 154.69 73.01 154.69 71.58"/><polygon class="cls-3" points="144.17 65.51 148.3 63.11 158.82 69.18 154.69 71.58 144.17 65.51"/><polygon class="cls-5" points="154.69 71.58 154.69 73.01 144.93 67.38 140.71 74.28 134.35 70.61 134.35 69.18 139.95 72.41 144.17 65.51 154.69 71.58"/></g><g class="cls-2"><polygon class="cls-3" points="89.19 96.15 93.31 93.75 98.91 96.98 94.78 99.38 89.19 96.15"/><polygon class="cls-4" points="99.76 94.35 103.89 91.95 99.67 98.85 95.54 101.25 99.76 94.35"/><polygon class="cls-5" points="109.53 98.56 113.65 96.16 113.65 97.59 109.52 99.99 109.53 98.56"/><polygon class="cls-3" points="99.01 92.48 103.14 90.08 113.65 96.16 109.53 98.56 99.01 92.48"/><polygon class="cls-5" points="109.53 98.56 109.52 99.99 99.76 94.35 95.54 101.25 89.18 97.58 89.19 96.15 94.78 99.38 99.01 92.48 109.53 98.56"/></g><g class="cls-2"><polygon class="cls-3" points="150.68 59.95 154.8 57.55 160.4 60.79 156.27 63.19 150.68 59.95"/><polygon class="cls-4" points="161.25 58.16 165.38 55.76 161.15 62.66 157.03 65.06 161.25 58.16"/><polygon class="cls-5" points="171.01 62.36 175.14 59.96 175.14 61.39 171.01 63.79 171.01 62.36"/><polygon class="cls-3" points="160.5 56.29 164.62 53.89 175.14 59.96 171.01 62.36 160.5 56.29"/><polygon class="cls-5" points="171.01 62.36 171.01 63.79 161.25 58.16 157.03 65.06 150.67 61.39 150.68 59.95 156.27 63.19 160.5 56.29 171.01 62.36"/></g><g class="cls-2"><polygon class="cls-3" points="166.36 51.05 170.49 48.65 176.08 51.88 171.96 54.28 166.36 51.05"/><polygon class="cls-4" points="176.94 49.25 181.06 46.85 176.84 53.75 172.71 56.15 176.94 49.25"/><polygon class="cls-5" points="186.7 53.45 190.83 51.06 190.82 52.49 186.69 54.89 186.7 53.45"/><polygon class="cls-3" points="176.18 47.38 180.31 44.98 190.83 51.06 186.7 53.45 176.18 47.38"/><polygon class="cls-5" points="186.7 53.45 186.69 54.89 176.94 49.25 172.71 56.15 166.36 52.48 166.36 51.05 171.96 54.28 176.18 47.38 186.7 53.45"/></g><g class="cls-2"><polygon class="cls-3" points="272.35 86.87 268.22 84.47 262.63 87.7 266.75 90.1 272.35 86.87"/><polygon class="cls-4" points="261.78 85.07 257.65 82.67 261.87 89.57 266 91.97 261.78 85.07"/><polygon class="cls-5" points="252.01 89.27 247.88 86.88 247.89 88.31 252.02 90.7 252.01 89.27"/><polygon class="cls-3" points="262.53 83.2 258.4 80.8 247.88 86.88 252.01 89.27 262.53 83.2"/><polygon class="cls-5" points="252.01 89.27 252.02 90.7 261.78 85.07 266 91.97 272.36 88.3 272.35 86.87 266.75 90.1 262.53 83.2 252.01 89.27"/></g><g class="cls-2"><polygon class="cls-3" points="257.02 78.14 252.89 75.74 247.3 78.97 251.43 81.37 257.02 78.14"/><polygon class="cls-4" points="246.45 76.34 242.32 73.94 246.54 80.84 250.67 83.24 246.45 76.34"/><polygon class="cls-5" points="236.68 80.54 232.56 78.14 232.56 79.57 236.69 81.97 236.68 80.54"/><polygon class="cls-3" points="247.2 74.47 243.07 72.07 232.56 78.14 236.68 80.54 247.2 74.47"/><polygon class="cls-5" points="236.68 80.54 236.69 81.97 246.45 76.34 250.67 83.24 257.03 79.57 257.02 78.14 251.43 81.37 247.2 74.47 236.68 80.54"/></g><g class="cls-2"><polygon class="cls-3" points="242.34 69.39 238.21 66.99 232.62 70.22 236.74 72.62 242.34 69.39"/><polygon class="cls-4" points="231.76 67.59 227.64 65.19 231.86 72.09 235.99 74.49 231.76 67.59"/><polygon class="cls-5" points="222 71.8 217.87 69.4 217.88 70.83 222 73.23 222 71.8"/><polygon class="cls-3" points="232.52 65.72 228.39 63.33 217.87 69.4 222 71.8 232.52 65.72"/><polygon class="cls-5" points="222 71.8 222 73.23 231.76 67.59 235.99 74.49 242.34 70.82 242.34 69.39 236.74 72.62 232.52 65.72 222 71.8"/></g><g class="cls-2"><polygon class="cls-3" points="287.51 96.36 283.38 93.96 277.78 97.2 281.91 99.59 287.51 96.36"/><polygon class="cls-4" points="276.93 94.57 272.8 92.17 277.03 99.07 281.15 101.47 276.93 94.57"/><polygon class="cls-5" points="267.17 98.77 263.04 96.37 263.04 97.8 267.17 100.2 267.17 98.77"/><polygon class="cls-3" points="277.69 92.7 273.56 90.3 263.04 96.37 267.17 98.77 277.69 92.7"/><polygon class="cls-5" points="267.17 98.77 267.17 100.2 276.93 94.57 281.15 101.47 287.51 97.8 287.51 96.36 281.91 99.59 277.69 92.7 267.17 98.77"/></g><g class="cls-2"><polygon class="cls-3" points="226.02 60.17 221.89 57.77 216.29 61 220.42 63.4 226.02 60.17"/><polygon class="cls-4" points="215.44 58.37 211.32 55.97 215.54 62.87 219.67 65.27 215.44 58.37"/><polygon class="cls-5" points="205.68 62.57 201.55 60.18 201.56 61.61 205.68 64 205.68 62.57"/><polygon class="cls-3" points="216.2 56.5 212.07 54.1 201.55 60.18 205.68 62.57 216.2 56.5"/><polygon class="cls-5" points="205.68 62.57 205.68 64 215.44 58.37 219.67 65.27 226.02 61.6 226.02 60.17 220.42 63.4 216.2 56.5 205.68 62.57"/></g><g class="cls-2"><polygon class="cls-3" points="210.33 51.26 206.21 48.86 200.61 52.09 204.74 54.49 210.33 51.26"/><polygon class="cls-4" points="199.76 49.46 195.63 47.07 199.85 53.97 203.98 56.36 199.76 49.46"/><polygon class="cls-5" points="190 53.67 185.87 51.27 185.87 52.7 190 55.1 190 53.67"/><polygon class="cls-3" points="200.51 47.6 196.39 45.2 185.87 51.27 190 53.67 200.51 47.6"/><polygon class="cls-5" points="190 53.67 190 55.1 199.76 49.46 203.98 56.36 210.34 52.69 210.33 51.26 204.74 54.49 200.51 47.6 190 53.67"/></g><g class="cls-2"><polygon class="cls-6" points="277.48 96.19 277.45 106.08 189 157.48 189.03 147.6 277.48 96.19"/><polygon class="cls-7" points="189.03 147.6 189 157.48 99.97 106.08 100 96.19 189.03 147.6"/><polygon class="cls-8" points="277.48 96.19 189.03 147.6 100 96.19 188.45 44.79 277.48 96.19"/></g><polygon class="cls-9" points="256.28 93.69 256.26 98.63 188.94 137.75 188.95 132.81 256.28 93.69"/><polygon class="cls-10" points="188.95 132.81 188.94 137.75 121.17 98.63 121.18 93.69 188.95 132.81"/><polygon class="cls-11" points="256.28 93.69 188.95 132.81 121.18 93.69 188.51 54.56 256.28 93.69"/><g class="cls-2"><polygon class="cls-10" points="92.73 121.69 88.61 119.29 92.78 107.55 96.91 109.94 92.73 121.69"/><polygon class="cls-3" points="96.91 109.94 92.78 107.55 103.3 101.47 107.42 103.87 96.91 109.94"/><polygon class="cls-3" points="87.14 124.92 83.01 122.52 88.61 119.29 92.73 121.69 87.14 124.92"/><polygon class="cls-4" points="87.14 126.35 83.01 123.95 83.01 122.52 87.14 124.92 87.14 126.35"/><polygon class="cls-5" points="107.42 103.87 107.43 105.3 97.67 110.94 93.5 122.68 87.14 126.35 87.14 124.92 92.73 121.69 96.91 109.94 107.42 103.87"/></g><g class="cls-2"><polygon class="cls-10" points="108.25 130.57 104.13 128.17 108.3 116.43 112.42 118.83 108.25 130.57"/><polygon class="cls-3" points="112.42 118.83 108.3 116.43 118.81 110.35 122.94 112.75 112.42 118.83"/><polygon class="cls-3" points="102.65 133.8 98.53 131.4 104.13 128.17 108.25 130.57 102.65 133.8"/><polygon class="cls-4" points="102.66 135.23 98.53 132.84 98.53 131.4 102.65 133.8 102.66 135.23"/><polygon class="cls-5" points="122.94 112.75 122.95 114.18 113.18 119.82 109.02 131.56 102.66 135.23 102.65 133.8 108.25 130.57 112.42 118.83 122.94 112.75"/></g><g class="cls-2"><polygon class="cls-10" points="123.65 139.54 119.52 137.14 123.69 125.4 127.82 127.8 123.65 139.54"/><polygon class="cls-3" points="127.82 127.8 123.69 125.4 134.21 119.33 138.34 121.72 127.82 127.8"/><polygon class="cls-3" points="118.05 142.77 113.92 140.38 119.52 137.14 123.65 139.54 118.05 142.77"/><polygon class="cls-4" points="118.05 144.21 113.92 141.81 113.92 140.38 118.05 142.77 118.05 144.21"/><polygon class="cls-5" points="138.34 121.72 138.34 123.16 128.58 128.79 124.41 140.54 118.05 144.21 118.05 142.77 123.65 139.54 127.82 127.8 138.34 121.72"/></g><g class="cls-2"><polygon class="cls-10" points="139.04 148.45 134.91 146.05 139.08 134.31 143.21 136.71 139.04 148.45"/><polygon class="cls-3" points="143.21 136.71 139.08 134.31 149.6 128.24 153.73 130.63 143.21 136.71"/><polygon class="cls-3" points="133.44 151.68 129.31 149.28 134.91 146.05 139.04 148.45 133.44 151.68"/><polygon class="cls-4" points="133.44 153.12 129.31 150.72 129.31 149.28 133.44 151.68 133.44 153.12"/><polygon class="cls-5" points="153.73 130.63 153.73 132.06 143.97 137.7 139.8 149.45 133.44 153.12 133.44 151.68 139.04 148.45 143.21 136.71 153.73 130.63"/></g><g class="cls-2"><polygon class="cls-10" points="154.62 157.3 150.49 154.9 154.66 143.16 158.79 145.56 154.62 157.3"/><polygon class="cls-3" points="158.79 145.56 154.66 143.16 165.18 137.08 169.31 139.48 158.79 145.56"/><polygon class="cls-3" points="149.02 160.53 144.9 158.13 150.49 154.9 154.62 157.3 149.02 160.53"/><polygon class="cls-4" points="149.03 161.96 144.9 159.57 144.9 158.13 149.02 160.53 149.03 161.96"/><polygon class="cls-5" points="169.31 139.48 169.31 140.91 159.55 146.55 155.38 158.29 149.03 161.96 149.02 160.53 154.62 157.3 158.79 145.56 169.31 139.48"/></g><g class="cls-2"><polygon class="cls-10" points="169.91 166.22 165.78 163.82 169.95 152.08 174.08 154.48 169.91 166.22"/><polygon class="cls-3" points="174.08 154.48 169.95 152.08 180.47 146.01 184.6 148.41 174.08 154.48"/><polygon class="cls-3" points="164.31 169.46 160.18 167.06 165.78 163.82 169.91 166.22 164.31 169.46"/><polygon class="cls-4" points="164.31 170.89 160.18 168.49 160.18 167.06 164.31 169.46 164.31 170.89"/><polygon class="cls-5" points="184.6 148.41 184.6 149.84 174.84 155.47 170.67 167.22 164.31 170.89 164.31 169.46 169.91 166.22 174.08 154.48 184.6 148.41"/></g><g class="cls-2"><polygon class="cls-10" points="285.05 121.85 289.18 119.45 285.01 107.71 280.88 110.11 285.05 121.85"/><polygon class="cls-3" points="280.88 110.11 285.01 107.71 274.49 101.63 270.36 104.03 280.88 110.11"/><polygon class="cls-3" points="290.65 125.08 294.77 122.68 289.18 119.45 285.05 121.85 290.65 125.08"/><polygon class="cls-4" points="290.64 126.51 294.77 124.12 294.77 122.68 290.65 125.08 290.64 126.51"/><polygon class="cls-5" points="270.36 104.03 270.36 105.46 280.12 111.1 284.29 122.84 290.64 126.51 290.65 125.08 285.05 121.85 280.88 110.11 270.36 104.03"/></g><g class="cls-2"><polygon class="cls-10" points="269.53 130.73 273.66 128.33 269.49 116.59 265.36 118.99 269.53 130.73"/><polygon class="cls-3" points="265.36 118.99 269.49 116.59 258.97 110.52 254.84 112.91 265.36 118.99"/><polygon class="cls-3" points="275.13 133.96 279.26 131.56 273.66 128.33 269.53 130.73 275.13 133.96"/><polygon class="cls-4" points="275.13 135.4 279.25 133 279.26 131.56 275.13 133.96 275.13 135.4"/><polygon class="cls-5" points="254.84 112.91 254.84 114.34 264.6 119.98 268.77 131.72 275.13 135.4 275.13 133.96 269.53 130.73 265.36 118.99 254.84 112.91"/></g><g class="cls-2"><polygon class="cls-10" points="254.14 139.7 258.26 137.31 254.09 125.56 249.97 127.96 254.14 139.7"/><polygon class="cls-3" points="249.97 127.96 254.09 125.56 243.57 119.49 239.45 121.89 249.97 127.96"/><polygon class="cls-3" points="259.74 142.94 263.86 140.54 258.26 137.31 254.14 139.7 259.74 142.94"/><polygon class="cls-4" points="259.73 144.37 263.86 141.97 263.86 140.54 259.74 142.94 259.73 144.37"/><polygon class="cls-5" points="239.45 121.89 239.44 123.32 249.21 128.95 253.37 140.7 259.73 144.37 259.74 142.94 254.14 139.7 249.97 127.96 239.45 121.89"/></g><g class="cls-2"><polygon class="cls-10" points="238.75 148.61 242.87 146.22 238.7 134.47 234.58 136.87 238.75 148.61"/><polygon class="cls-3" points="234.58 136.87 238.7 134.47 228.18 128.4 224.06 130.8 234.58 136.87"/><polygon class="cls-3" points="244.35 151.85 248.47 149.45 242.87 146.22 238.75 148.61 244.35 151.85"/><polygon class="cls-4" points="244.34 153.28 248.47 150.88 248.47 149.45 244.35 151.85 244.34 153.28"/><polygon class="cls-5" points="224.06 130.8 224.05 132.23 233.81 137.86 237.98 149.61 244.34 153.28 244.35 151.85 238.75 148.61 234.58 136.87 224.06 130.8"/></g><g class="cls-2"><polygon class="cls-10" points="223.16 157.46 227.29 155.06 223.12 143.32 218.99 145.72 223.16 157.46"/><polygon class="cls-3" points="218.99 145.72 223.12 143.32 212.6 137.25 208.47 139.64 218.99 145.72"/><polygon class="cls-3" points="228.76 160.69 232.89 158.29 227.29 155.06 223.16 157.46 228.76 160.69"/><polygon class="cls-4" points="228.76 162.13 232.88 159.73 232.89 158.29 228.76 160.69 228.76 162.13"/><polygon class="cls-5" points="208.47 139.64 208.47 141.07 218.23 146.71 222.4 158.46 228.76 162.13 228.76 160.69 223.16 157.46 218.99 145.72 208.47 139.64"/></g><g class="cls-2"><polygon class="cls-10" points="207.88 166.38 212 163.99 207.84 152.24 203.71 154.64 207.88 166.38"/><polygon class="cls-3" points="203.71 154.64 207.84 152.24 197.31 146.17 193.19 148.57 203.71 154.64"/><polygon class="cls-3" points="213.48 169.62 217.6 167.22 212 163.99 207.88 166.38 213.48 169.62"/><polygon class="cls-4" points="213.47 171.05 217.6 168.65 217.6 167.22 213.48 169.62 213.47 171.05"/><polygon class="cls-5" points="193.19 148.57 193.18 150 202.95 155.63 207.11 167.38 213.47 171.05 213.48 169.62 207.88 166.38 203.71 154.64 193.19 148.57"/></g><polygon class="cls-9" points="144.56 93.69 147.87 95.6 188.59 119.11 188.59 68.1 144.56 93.69"/><polygon class="cls-10" points="188.59 68.1 188.59 119.11 188.87 119.27 229.6 95.61 232.91 93.69 188.59 68.1"/><polygon class="cls-12" points="229.6 95.61 188.87 119.27 147.87 95.6 188.59 71.93 229.6 95.61"/><polygon class="cls-8" points="229.6 95.61 188.87 119.27 147.87 95.6 188.59 71.93 229.6 95.61"/><g class="cls-2"><polygon class="cls-9" points="210.75 92.08 210.74 94.55 205.91 97.36 205.91 94.89 210.75 92.08"/><polygon class="cls-10" points="205.91 94.89 205.91 97.36 184.3 84.89 184.31 82.42 205.91 94.89"/><polygon class="cls-13" points="210.75 92.08 205.91 94.89 184.31 82.42 189.14 79.61 210.75 92.08"/></g><g class="cls-2"><g class="cls-2"><path class="cls-1" d="M186.7,96.16v2.47l-3.64-1-3.22-.84-2.6-.66-1.78-.44V93.22l1.77.44,2.6.66,3.22.84Z"/><g class="cls-14"><g class="cls-2"><path class="cls-10" d="M186.7,96.16v2.47l-3.64-1-3.22-.84-2.6-.66-1.78-.44V93.22l1.77.44,2.6.66,3.22.84Z"/></g></g></g><g class="cls-2"><path class="cls-1" d="M194.9,98.61v2.47l-3.18-.89V97.72Z"/><g class="cls-15"><g class="cls-2"><path class="cls-10" d="M194.9,98.61v2.47l-3.18-.89V97.72Z"/></g></g></g><g class="cls-2"><path class="cls-1" d="M198,99.5V102c-1-.3-2-.59-3.08-.89V98.61C196,98.91,197,99.2,198,99.5Z"/><g class="cls-16"><g class="cls-2"><path class="cls-10" d="M198,99.5V102c-1-.3-2-.59-3.08-.89V98.61C196,98.91,197,99.2,198,99.5Z"/></g></g></g><polygon class="cls-9" points="203.16 96.49 203.15 98.96 197.97 101.97 197.98 99.5 203.16 96.49"/><polygon class="cls-9" points="191.72 97.72 191.71 100.19 183.32 105.06 183.33 102.59 191.72 97.72"/><g class="cls-2"><path class="cls-1" d="M181.41,109.13v2.47q-2.28-2.73-4.16-5.07c-1.24-1.56-2.4-3-3.45-4.45s-2-2.77-2.92-4.07-1.73-2.58-2.5-3.87V91.67c.77,1.28,1.6,2.58,2.5,3.87s1.87,2.65,2.92,4.07,2.2,2.89,3.45,4.45S179.89,107.31,181.41,109.13Z"/><g class="cls-17"><g class="cls-2"><path class="cls-10" d="M181.41,109.13v2.47q-2.28-2.73-4.16-5.07c-1.24-1.56-2.4-3-3.45-4.45s-2-2.77-2.92-4.07-1.73-2.58-2.5-3.87V91.67c.77,1.28,1.6,2.58,2.5,3.87s1.87,2.65,2.92,4.07,2.2,2.89,3.45,4.45S179.89,107.31,181.41,109.13Z"/></g></g></g><polygon class="cls-9" points="186.43 106.21 186.42 108.68 181.41 111.6 181.41 109.13 186.43 106.21"/><path class="cls-13" d="M194.9,98.61l-3.18-.89-8.39,4.87,1.56,1.85c.51.61,1,1.2,1.54,1.77l-5,2.92q-2.28-2.73-4.15-5.07t-3.45-4.45c-1.05-1.42-2-2.77-2.92-4.07s-1.73-2.59-2.5-3.87L173,89c2.2.45,4.42.93,6.68,1.44s4.6,1.06,7,1.67,5,1.26,7.71,2,5.62,1.52,8.76,2.39l-5.18,3C197,99.2,196,98.91,194.9,98.61Zm-14.34,1.11,6.14-3.56-3.64-1-3.22-.84-2.6-.66-1.77-.44.8,1,1.17,1.49,1.45,1.87C179.41,98.28,180,99,180.56,99.72Z"/></g><path class="cls-8" d="M189.21,196.52,42.86,112l145.41-84.5L334.62,112ZM46.74,112l142.47,82.25L330.73,112,188.27,29.77Z"/><path class="cls-8" d="M65.56,124l-10.82,6.25a.53.53,0,0,1-.52,0l-11.09-6.41-36,20.8-3.36,1.94a.48.48,0,0,1-.26.07.52.52,0,0,1-.44-.26.51.51,0,0,1,.19-.7l2.83-1.64,36.8-21.24a.52.52,0,0,1,.51,0l11.1,6.4,10.05-5.8Z"/><path class="cls-8" d="M152.81,173.4l-1.71,1-9.84,5.69a.53.53,0,0,1-.52,0l-11.09-6.41-14,8.09-1,.59L93.34,194.62l-3.07,1.78a.54.54,0,0,1-.25.06.53.53,0,0,1-.45-.25.51.51,0,0,1,.19-.7l2.73-1.58,21.1-12.18,1-.6,14.77-8.53a.53.53,0,0,1,.52,0L141,179l9.08-5.24,1.71-1Z"/><path class="cls-8" d="M119.14,154l-1.71,1-9.57,5.53a.53.53,0,0,1-.52,0l-11.09-6.41L82,162.3l-1,.6L60.49,174.71l-3.62,2.09a.57.57,0,0,1-.25.06.53.53,0,0,1-.45-.25.51.51,0,0,1,.19-.7L59.67,174l20.25-11.7,1-.59L96,153a.49.49,0,0,1,.52,0l11.09,6.4,8.8-5.08,1.71-1Z"/><path class="cls-8" d="M92.28,138.44l-1.72,1-36.19,20.9-2.72,1.57a.51.51,0,0,1-.7-.19.5.5,0,0,1,.19-.7l2.26-1.3,36.14-20.87,1.71-1Z"/><path class="cls-8" d="M165.2,180.55l-1.71,1-35.7,20.61L125,203.73a.54.54,0,0,1-.26.07.51.51,0,0,1-.26-1l2.24-1.29,35.7-20.61,1.71-1Z"/><path class="cls-8" d="M130.66,160.6l-1.71,1-24.11,13.92-1,.59-10.93,6.32h0L90,184.07a.45.45,0,0,1-.25.07.51.51,0,0,1-.26-1l2.37-1.37,10.92-6.3,1-.59L127.92,161l1.71-1Z"/><polygon class="cls-8" points="130.13 190.11 116.61 197.92 112.83 200.1 112.32 199.21 115.72 197.25 128.08 190.11 114.62 182.34 113.59 181.75 103.82 176.1 102.8 175.51 80.95 162.9 79.92 162.3 71.04 157.17 95.99 142.56 97.69 141.57 98.71 142.16 97.01 143.15 73.08 157.17 80.95 161.71 81.97 162.3 103.82 174.92 104.84 175.51 114.62 181.16 115.64 181.75 130.13 190.11"/><path class="cls-8" d="M6.67,144.34c1.53.88,1.53,2.31,0,3.19a6.12,6.12,0,0,1-5.53,0c-1.52-.88-1.52-2.31,0-3.19A6.12,6.12,0,0,1,6.67,144.34Z"/><path class="cls-8" d="M73.84,142.81a.5.5,0,0,1-.25.44l-31,17.91-2.84,1.64a.54.54,0,0,1-.25.06.51.51,0,0,1-.45-.25.52.52,0,0,1,.19-.7l2.36-1.36L72.3,142.81l-11.4-6.59a.51.51,0,0,1,0-.89l11.28-6.51,1.71-1,1,.59-1.71,1-11,6.37,11.41,6.58A.52.52,0,0,1,73.84,142.81Z"/><path class="cls-8" d="M42.05,160.78c1.52.88,1.52,2.31,0,3.19a6.12,6.12,0,0,1-5.53,0c-1.53-.88-1.53-2.31,0-3.19A6.12,6.12,0,0,1,42.05,160.78Z"/><path class="cls-8" d="M171.88,198.71a.52.52,0,0,1-.26.45l-30.2,17.44-3.65,2.1a.48.48,0,0,1-.26.07.5.5,0,0,1-.44-.26.51.51,0,0,1,.19-.7l3.17-1.83,29.91-17.27-11.41-6.58a.52.52,0,0,1-.25-.45.5.5,0,0,1,.25-.44l10.69-6.17,1.71-1,1,.6-1.71,1-10.43,6,11.41,6.59A.51.51,0,0,1,171.88,198.71Z"/><path class="cls-8" d="M140.87,216.19c1.52.88,1.52,2.31,0,3.2a6.12,6.12,0,0,1-5.53,0c-1.53-.89-1.53-2.32,0-3.2A6.12,6.12,0,0,1,140.87,216.19Z"/><path class="cls-8" d="M53.79,159.9c1.52.88,1.52,2.31,0,3.19a6.12,6.12,0,0,1-5.53,0c-1.53-.88-1.53-2.31,0-3.19A6.12,6.12,0,0,1,53.79,159.9Z"/><path class="cls-8" d="M59.66,174c1.52.88,1.52,2.31,0,3.19a6.12,6.12,0,0,1-5.53,0c-1.53-.88-1.53-2.31,0-3.19A6.12,6.12,0,0,1,59.66,174Z"/><path class="cls-8" d="M92.39,182.06c1.53.88,1.53,2.31,0,3.19a6.12,6.12,0,0,1-5.53,0c-1.53-.88-1.53-2.31,0-3.19A6.12,6.12,0,0,1,92.39,182.06Z"/><path class="cls-8" d="M92.54,194c1.52.88,1.52,2.31,0,3.19a6.12,6.12,0,0,1-5.53,0c-1.53-.88-1.53-2.31,0-3.19A6.12,6.12,0,0,1,92.54,194Z"/><path class="cls-8" d="M115.87,197.33c1.53.88,1.53,2.31,0,3.19a6.12,6.12,0,0,1-5.53,0c-1.52-.88-1.52-2.31,0-3.19A6.06,6.06,0,0,1,115.87,197.33Z"/><path class="cls-8" d="M127.37,201.84c1.52.88,1.52,2.31,0,3.19a6.12,6.12,0,0,1-5.53,0c-1.53-.88-1.53-2.31,0-3.19A6.12,6.12,0,0,1,127.37,201.84Z"/><path class="cls-8" d="M342.68,159.34a.54.54,0,0,1-.45.26.55.55,0,0,1-.25-.07l-3.12-1.8L308.13,140a.49.49,0,0,1-.26-.44.5.5,0,0,1,.26-.45l11.4-6.58L309.3,126.6l-1.71-1,1-.59,1.71,1,10.5,6.06a.52.52,0,0,1,0,.89l-11.41,6.59L340,157.21l2.48,1.43A.51.51,0,0,1,342.68,159.34Z"/><path class="cls-8" d="M236.52,220.79a.53.53,0,0,1-.45.25.54.54,0,0,1-.25-.06l-3-1.75L202,201.43a.52.52,0,0,1,0-.89L213.37,194l-10-5.78-1.7-1,1-.59,1.7,1,10.28,5.94a.51.51,0,0,1,0,.89L203.25,201,234,218.74l2.34,1.35A.52.52,0,0,1,236.52,220.79Z"/><path class="cls-8" d="M288.86,187.79a.54.54,0,0,1-.45.26.43.43,0,0,1-.25-.07l-2.84-1.64L262,172.87a.5.5,0,0,1,0-.88l8.65-5-7.8-4.58-1-.6L255.31,158l-1.69-1,1-.59,1.69,1,6.53,3.84,1,.6,8,4.73a.54.54,0,0,1,.26.45.53.53,0,0,1-.26.44l-8.64,5L286.71,186h0l2,1.13A.52.52,0,0,1,288.86,187.79Z"/><path class="cls-8" d="M331.23,186.43a.52.52,0,0,1-.45.26.51.51,0,0,1-.26-.07l-3-1.74L285,160.32a.51.51,0,0,1-.26-.44.52.52,0,0,1,.26-.45l15.61-9-16.19-9.36-1.71-1,1-.59,1.71,1,16.46,9.5a.52.52,0,0,1,0,.89l-15.62,9,42.43,24.5,2.35,1.35A.52.52,0,0,1,331.23,186.43Z"/><path class="cls-8" d="M285.59,199.26a.52.52,0,0,1-.45.25.47.47,0,0,1-.25-.07l-2.6-1.49-30.1-17.38-16.61,9.59a.52.52,0,0,1-.51,0L217.44,180l-1.7-1,1-.59,1.7,1,16.87,9.74,16.6-9.59a.53.53,0,0,1,.52,0l30.87,17.83,2.08,1.2A.51.51,0,0,1,285.59,199.26Z"/><path class="cls-8" d="M330.76,158.44a.51.51,0,0,1-.7.19l-2.92-1.69L292,136.65l-1.7-1,1-.6,1.7,1,35.23,20.33,2.34,1.35A.51.51,0,0,1,330.76,158.44Z"/><path class="cls-8" d="M357.92,142.53a.51.51,0,0,1-.7.19L354,140.86,319.26,120.8l-1.71-1,1-.6,1.71,1,34.7,20,2.74,1.58A.51.51,0,0,1,357.92,142.53Z"/><path class="cls-8" d="M299.2,176.41a.53.53,0,0,1-.45.25.48.48,0,0,1-.26-.07l-3.17-1.83-26.93-15.55-1-.59-6.6-3.82-1.71-1,1-.59,1.71,1,6.61,3.82,1,.59,26.84,15.49,2.76,1.6A.52.52,0,0,1,299.2,176.41Z"/><path class="cls-8" d="M248.22,206.12a.51.51,0,0,1-.7.19l-3-1.7h0L209.7,184.47l-1.7-1,1-.6,1.7,1,34.95,20.17,2.36,1.37A.5.5,0,0,1,248.22,206.12Z"/><polygon class="cls-8" points="285.83 149.15 269.42 158.62 268.39 159.21 263.88 161.82 262.86 162.41 242.28 174.29 239.2 176.06 238.69 175.18 241.43 173.6 261.84 161.81 262.86 161.22 267.36 158.62 268.39 158.03 283.78 149.15 277.11 145.3 275.41 144.31 276.43 143.72 278.14 144.7 285.83 149.15"/><path class="cls-8" d="M238.4,219.18c1.52.88,1.52,2.31,0,3.2a6.12,6.12,0,0,1-5.53,0c-1.53-.89-1.53-2.32,0-3.2A6.12,6.12,0,0,1,238.4,219.18Z"/><path class="cls-8" d="M250.4,204.41c1.53.88,1.53,2.31,0,3.19a6.1,6.1,0,0,1-5.52,0c-1.53-.88-1.53-2.31,0-3.19A6,6,0,0,1,250.4,204.41Z"/><path class="cls-8" d="M241.48,173.62c1.52.88,1.52,2.31,0,3.19a6.12,6.12,0,0,1-5.53,0c-1.53-.88-1.53-2.31,0-3.19A6.12,6.12,0,0,1,241.48,173.62Z"/><path class="cls-8" d="M288.27,197.63c1.53.88,1.53,2.31,0,3.2a6.12,6.12,0,0,1-5.53,0c-1.53-.89-1.53-2.32,0-3.2A6.12,6.12,0,0,1,288.27,197.63Z"/><path class="cls-8" d="M290.43,186.55c1.52.88,1.52,2.31,0,3.19a6.12,6.12,0,0,1-5.53,0c-1.53-.88-1.53-2.31,0-3.19A6.12,6.12,0,0,1,290.43,186.55Z"/><path class="cls-8" d="M301.51,174.25c1.53.88,1.53,2.31,0,3.19a6.1,6.1,0,0,1-5.52,0c-1.53-.88-1.53-2.31,0-3.19A6.1,6.1,0,0,1,301.51,174.25Z"/><path class="cls-8" d="M333.14,184.82c1.52.88,1.52,2.31,0,3.19a6.12,6.12,0,0,1-5.53,0c-1.53-.88-1.53-2.31,0-3.19A6.12,6.12,0,0,1,333.14,184.82Z"/><ellipse class="cls-8" cx="330.2" cy="158.34" rx="3.91" ry="2.26"/><path class="cls-8" d="M344.57,157.61c1.53.89,1.53,2.31,0,3.2a6.12,6.12,0,0,1-5.53,0c-1.52-.89-1.52-2.31,0-3.2A6.12,6.12,0,0,1,344.57,157.61Z"/><path class="cls-8" d="M360.08,140.46c1.53.88,1.53,2.31,0,3.19a6.12,6.12,0,0,1-5.53,0c-1.52-.88-1.52-2.31,0-3.19A6.12,6.12,0,0,1,360.08,140.46Z"/><path class="cls-8" d="M151.32,17.18a.53.53,0,0,1-.25.45L143,22.49l-1,.61-10.19,6.1-1,.6-9.56,5.73L148,51l1.71,1-1,.59-1.71-1L119.92,36a.54.54,0,0,1-.25-.45.5.5,0,0,1,.25-.44l9.81-5.88,1-.61,10.19-6.1,1-.61,7.87-4.71L134.73,8.5,132.18,7a.52.52,0,0,1-.19-.7.51.51,0,0,1,.7-.18l3,1.74,15.36,8.86A.52.52,0,0,1,151.32,17.18Z"/><path class="cls-8" d="M59.53,103.46,33.16,88.24l11.41-6.59a.52.52,0,0,0,.25-.44.55.55,0,0,0-.25-.45l-15.5-8.94-2.88-1.66a.51.51,0,1,0-.51.89l2.19,1.27,15.41,8.89L31.87,87.8a.5.5,0,0,0-.25.44.49.49,0,0,0,.25.44L58.5,104.06Z"/><path class="cls-8" d="M113.18,73.27l-1,.6-1.71-1L92.11,62.29a.51.51,0,0,1,0-.89l8.65-5L79.59,44l-2-1.18a.51.51,0,0,1-.19-.7.53.53,0,0,1,.71-.18l2.55,1.51L102,56a.52.52,0,0,1,0,.89l-8.64,5,18.08,10.44Z"/><path class="cls-8" d="M136.1,60l-1,.6-1.71-1L104.84,43.09a.51.51,0,0,1,0-.89l12.6-7.27-16-9.24-3.38-2a.51.51,0,1,1,.51-.88l3.86,2.23,16.3,9.4a.52.52,0,0,1,.25.45.5.5,0,0,1-.25.44l-12.6,7.28L134.39,59Z"/><path class="cls-8" d="M100.27,80.77l-1,.6-1.7-1L78.91,69.63,65.59,77.32a.52.52,0,0,1-.51,0l-18-10.4-2.22-1.28a.52.52,0,1,1,.52-.89L48,66.28l17.33,10L78.66,68.6a.47.47,0,0,1,.51,0L98.56,79.79Z"/><path class="cls-8" d="M160.48,45.79l-1,.59-1.7-1-27-15.59-1-.58-8.36-4.83h0l-2.17-1.26a.52.52,0,0,1-.19-.7.53.53,0,0,1,.71-.18l2.8,1.61,8.23,4.75,1,.59,27,15.6Z"/><path class="cls-8" d="M171.86,39.17l-1,.59-1.71-1L141.94,23.1l-1-.59L109.48,4.37l-1.63-.94a.51.51,0,0,1-.19-.7.52.52,0,0,1,.7-.19l2.39,1.38,31.18,18,1,.59,27.21,15.69Z"/><path class="cls-8" d="M130.55,63.17l-1,.6-1.7-1L91.78,42h0l-2.41-1.4a.51.51,0,0,1,.51-.89l3,1.75,35.94,20.75Z"/><path class="cls-8" d="M79.9,92.61l-1,.6-1.71-1L61.08,82.93l-3.86-2.22A.51.51,0,0,1,57,80a.5.5,0,0,1,.69-.19l4.42,2.55,16,9.26Z"/><path class="cls-8" d="M29,68.67c1.53.89,1.53,2.31,0,3.2a6.12,6.12,0,0,1-5.53,0c-1.52-.89-1.52-2.31,0-3.2A6.12,6.12,0,0,1,29,68.67Z"/><path class="cls-8" d="M61.79,79.42c1.53.88,1.53,2.31,0,3.19a6.12,6.12,0,0,1-5.53,0c-1.52-.88-1.52-2.31,0-3.19A6.12,6.12,0,0,1,61.79,79.42Z"/><path class="cls-8" d="M47.37,63.57c1.53.88,1.53,2.31,0,3.19a6.1,6.1,0,0,1-5.52,0c-1.53-.88-1.53-2.31,0-3.19A6,6,0,0,1,47.37,63.57Z"/><path class="cls-8" d="M80.31,40.44c1.53.88,1.53,2.31,0,3.19a6.12,6.12,0,0,1-5.53,0c-1.52-.88-1.52-2.31,0-3.19A6.06,6.06,0,0,1,80.31,40.44Z"/><path class="cls-8" d="M53.43,56c1.53.88,1.53,2.31,0,3.19a6.06,6.06,0,0,1-5.53,0c-1.52-.88-1.52-2.31,0-3.19A6.12,6.12,0,0,1,53.43,56Z"/><path class="cls-8" d="M107,76.85l-1,.6-1.7-1L61.62,51.83l-7.74,4.46L51,58a.51.51,0,1,1-.52-.88l2.4-1.39,8.51-4.91a.52.52,0,0,1,.51,0l43.44,25.08Z"/><path class="cls-8" d="M178.32,35.42l-1,.59-1.71-1L157,24.32a.51.51,0,0,1,0-.89l8.65-5L144.53,6l-2-1.18a.51.51,0,1,1,.51-.88l2.57,1.5L167,18a.5.5,0,0,1,.25.44.53.53,0,0,1-.25.45l-8.65,5,18.29,10.55Z"/><path class="cls-8" d="M145.24,2.47c1.53.88,1.53,2.31,0,3.19a6.12,6.12,0,0,1-5.53,0c-1.52-.88-1.52-2.31,0-3.19A6.06,6.06,0,0,1,145.24,2.47Z"/><path class="cls-8" d="M92.66,38.41c1.52.88,1.52,2.31,0,3.19a6.12,6.12,0,0,1-5.53,0c-1.53-.88-1.53-2.31,0-3.19A6.12,6.12,0,0,1,92.66,38.41Z"/><path class="cls-8" d="M101.88,22.28c1.53.88,1.53,2.31,0,3.19a6.1,6.1,0,0,1-5.52,0c-1.53-.88-1.53-2.31,0-3.19A6,6,0,0,1,101.88,22.28Z"/><path class="cls-8" d="M110.88.66c1.52.88,1.52,2.31,0,3.19a6.12,6.12,0,0,1-5.53,0c-1.53-.88-1.53-2.31,0-3.19A6.12,6.12,0,0,1,110.88.66Z"/><path class="cls-8" d="M135.15,5.09c1.53.89,1.53,2.32,0,3.2a6.1,6.1,0,0,1-5.52,0c-1.53-.88-1.53-2.31,0-3.2A6.1,6.1,0,0,1,135.15,5.09Z"/><path class="cls-8" d="M122.31,20.79c1.53.88,1.53,2.31,0,3.19a6.12,6.12,0,0,1-5.53,0c-1.52-.88-1.52-2.31,0-3.19A6.12,6.12,0,0,1,122.31,20.79Z"/><path class="cls-8" d="M324,76a.55.55,0,0,1-.26.45L298.21,91.14l-1.7,1-1-.59,1.7-1L322.42,76,299.26,62.09l-1-.6-5.72-3.42a.55.55,0,0,1-.25-.45.51.51,0,0,1,.26-.44l15.35-8.86,3-1.74a.51.51,0,0,1,.7.18.52.52,0,0,1-.19.71l-2.54,1.47-15.07,8.7,5.45,3.26,1,.61,23.42,14A.53.53,0,0,1,324,76Z"/><path class="cls-8" d="M299.53,43.66l-2,1.18L276.36,57.3l8.65,5a.52.52,0,0,1,.26.45.51.51,0,0,1-.26.44L267.4,73.35l-1.71,1-1-.59,1.71-1,17.35-10-8.64-5a.51.51,0,0,1-.26-.45.52.52,0,0,1,.25-.44l21.38-12.58,2.55-1.5a.52.52,0,0,1,.71.18A.51.51,0,0,1,299.53,43.66Z"/><path class="cls-8" d="M277.67,21.44l-3.29,1.9-16.52,9.54,12.87,7.43a.54.54,0,0,1,.26.45.51.51,0,0,1-.26.44l-29.5,17-1.71,1-1-.59,1.7-1,29.25-16.89-12.88-7.43a.54.54,0,0,1-.25-.45.52.52,0,0,1,.25-.44l16.91-9.76,3.67-2.13a.53.53,0,0,1,.71.19A.52.52,0,0,1,277.67,21.44Z"/><path class="cls-8" d="M351.49,86.11l-2.2,1.27L334.42,96a.47.47,0,0,1-.51,0L322.72,89.5l-13.67,7.89-1.71,1-1-.59,1.71-1,14.43-8.33a.49.49,0,0,1,.52,0l11.19,6.46,14-8.08L351,85.22a.51.51,0,0,1,.51.89Z"/><path class="cls-8" d="M256.89,24.2l-2.17,1.25h0L219.58,45.74l-1.71,1-1-.59,1.7-1,35-20.22,2.8-1.62a.51.51,0,0,1,.51.89Z"/><path class="cls-8" d="M269.27,4.32l-1.63.94-59.11,34.1-1.71,1-1-.59,1.71-1L266.37,4.81l2.39-1.38a.51.51,0,0,1,.51.89Z"/><path class="cls-8" d="M287.75,41.47l-2.42,1.4L250,63.28l-1.71,1-1-.59,1.7-1,35.27-20.36,3-1.75a.52.52,0,0,1,.7.19A.51.51,0,0,1,287.75,41.47Z"/><path class="cls-8" d="M249.43,41l-3.85,2.23L230.41,52l-1.71,1-1-.59,1.71-1,15.12-8.73,4.41-2.55a.51.51,0,0,1,.51.89Z"/><ellipse class="cls-8" cx="247.63" cy="41.32" rx="3.91" ry="2.26"/><path class="cls-8" d="M348.4,83.8c-1.53.88-1.53,2.31,0,3.19a6.12,6.12,0,0,0,5.53,0c1.52-.88,1.52-2.31,0-3.19A6.12,6.12,0,0,0,348.4,83.8Z"/><path class="cls-8" d="M296.81,41.33c-1.53.88-1.53,2.31,0,3.19a6.12,6.12,0,0,0,5.53,0c1.52-.88,1.52-2.31,0-3.19A6.12,6.12,0,0,0,296.81,41.33Z"/><path class="cls-8" d="M323.69,56.87c-1.53.89-1.53,2.31,0,3.2a6.12,6.12,0,0,0,5.53,0c1.52-.89,1.52-2.31,0-3.2A6.12,6.12,0,0,0,323.69,56.87Z"/><path class="cls-8" d="M326.86,58.68a.52.52,0,0,1-.7.19l-2.92-1.68-7.74-4.47-15.22,8.79-1,.58L273.59,76.92l-1.71,1-1-.59,1.71-1,25.7-14.84,1-.59,16-9.22a.52.52,0,0,1,.51,0l8.51,4.92,2.4,1.38A.52.52,0,0,1,326.86,58.68Z"/><path class="cls-8" d="M234.61,5.7l-2,1.18L211.43,19.33l8.65,5a.52.52,0,0,1,.26.45.51.51,0,0,1-.26.44l-18,10.41-1.7,1-6.43,3.71a.49.49,0,0,1-.25.08.52.52,0,0,1-.45-.26.51.51,0,0,1,.19-.7L199.32,36,201,35,218.8,24.77l-8.65-5a.52.52,0,0,1-.25-.44.5.5,0,0,1,.25-.45L231.53,6.31l2.56-1.5a.52.52,0,0,1,.7.18A.53.53,0,0,1,234.61,5.7Z"/><path class="cls-8" d="M231.88,3.36c-1.53.88-1.53,2.31,0,3.19a6.12,6.12,0,0,0,5.53,0c1.52-.88,1.52-2.31,0-3.19A6.12,6.12,0,0,0,231.88,3.36Z"/><path class="cls-8" d="M284.47,39.3c-1.53.88-1.53,2.31,0,3.19a6.1,6.1,0,0,0,5.52,0c1.53-.88,1.53-2.31,0-3.19A6.1,6.1,0,0,0,284.47,39.3Z"/><ellipse class="cls-8" cx="276.96" cy="21.65" rx="3.91" ry="2.26"/><path class="cls-8" d="M266.24,1.55c-1.52.88-1.52,2.31,0,3.19a6.06,6.06,0,0,0,5.53,0c1.53-.88,1.53-2.31,0-3.19A6.12,6.12,0,0,0,266.24,1.55Z"/><path class="cls-8" d="M308.46,45.54c-1.53.88-1.53,2.31,0,3.19a6.12,6.12,0,0,0,5.53,0c1.53-.88,1.53-2.31,0-3.19A6.06,6.06,0,0,0,308.46,45.54Z"/><path class="cls-8" d="M253.77,21.85c-1.53.89-1.53,2.31,0,3.2a6.12,6.12,0,0,0,5.53,0c1.53-.89,1.53-2.31,0-3.2A6.12,6.12,0,0,0,253.77,21.85Z"/></g></g></svg>