<svg xmlns="http://www.w3.org/2000/svg" xmlns:xlink="http://www.w3.org/1999/xlink" viewBox="0 0 150.97 223.82"><defs><style>.cls-1{fill:#dad9e8;}.cls-2{fill:#ebebf1;}.cls-3{fill:#05d4f5;}.cls-4{fill:#4cdead;}.cls-5{isolation:isolate;}.cls-6{clip-path:url(#clip-path);}.cls-7{clip-path:url(#clip-path-2);}.cls-8{clip-path:url(#clip-path-3);}.cls-9{fill:#c4c3ec;}.cls-10{clip-path:url(#clip-path-4);}.cls-11{clip-path:url(#clip-path-5);}.cls-12{clip-path:url(#clip-path-6);}.cls-13{fill:#12b0f3;}.cls-14{fill:#1393f2;}.cls-15{fill:#171c29;}.cls-16{fill:#919dd6;}.cls-17{fill:#e4e3ee;}.cls-18{fill:#b7b6e3;}.cls-19{clip-path:url(#clip-path-7);}.cls-20{clip-path:url(#clip-path-8);}.cls-21{clip-path:url(#clip-path-9);}.cls-22{clip-path:url(#clip-path-10);}.cls-23{clip-path:url(#clip-path-11);}.cls-24{clip-path:url(#clip-path-12);}</style><clipPath id="clip-path" transform="translate(0)"><path class="cls-1" d="M18.73,185.24l-8.49-4.94A4.3,4.3,0,0,1,8.35,177l8.49,4.94A4.32,4.32,0,0,0,18.73,185.24Z"/></clipPath><clipPath id="clip-path-2" transform="translate(0)"><path class="cls-1" d="M26,96.66l8.49,4.93c-2.48-1.44-5.91-1.26-9.76,1l-8.49-4.93C20.12,95.4,23.55,95.22,26,96.66Z"/></clipPath><clipPath id="clip-path-3" transform="translate(0)"><path class="cls-2" d="M8.68,130.18.19,125.24c-1.39-8.8,5-21.24,13.5-26.13l8.49,4.94C13.72,108.93,7.29,121.37,8.68,130.18Z"/></clipPath><clipPath id="clip-path-4" transform="translate(0)"><path class="cls-3" d="M34.16,103l5.91,3.44c-2.51-1.46-6-1.25-9.82,1L24.33,104C28.17,101.74,31.65,101.53,34.16,103Z"/></clipPath><clipPath id="clip-path-5" transform="translate(0)"><path class="cls-4" d="M20.51,140.09l-5.92-3.44c-2.47-1.44-4-4.5-4-8.85,0-8.76,6.14-19.44,13.76-23.85l5.92,3.44c-7.63,4.4-13.8,15.08-13.77,23.85C16.49,135.59,18,138.65,20.51,140.09Z"/></clipPath><clipPath id="clip-path-6" transform="translate(0)"><path class="cls-3" d="M31.62,113.17l-1.37-5.78c7.62-4.4,13.83-.86,13.85,7.9S38,134.73,30.34,139.13s-13.84.87-13.86-7.89,6.14-19.45,13.77-23.85l1.37,5.78c-5.23,3-9.46,10.35-9.44,16.35s4.27,8.43,9.5,5.41,9.45-10.34,9.43-16.35S36.84,110.15,31.62,113.17Z"/></clipPath><clipPath id="clip-path-7" transform="translate(0)"><path class="cls-3" d="M118.52,132.15l5.92,3.44c-2.51-1.46-6-1.26-9.83,1l-5.91-3.44C112.54,130.9,116,130.69,118.52,132.15Z"/></clipPath><clipPath id="clip-path-8" transform="translate(0)"><path class="cls-4" d="M104.88,169.25,99,165.81c-2.48-1.44-4-4.5-4-8.85,0-8.77,6.14-19.45,13.77-23.85l5.91,3.44c-7.62,4.4-13.79,15.08-13.76,23.84C100.86,164.75,102.4,167.81,104.88,169.25Z"/></clipPath><clipPath id="clip-path-9" transform="translate(0)"><path class="cls-3" d="M116,142.33l-1.38-5.78c7.63-4.4,13.83-.87,13.86,7.9s-6.14,19.43-13.77,23.84-13.83.87-13.85-7.9S107,141,114.61,136.55l1.38,5.78c-5.23,3-9.46,10.34-9.44,16.35s4.27,8.43,9.5,5.41,9.45-10.35,9.43-16.35S121.21,139.31,116,142.33Z"/></clipPath><clipPath id="clip-path-10" transform="translate(0)"><path class="cls-1" d="M118.59,223.39l-8.49-4.94a4.36,4.36,0,0,1-1.89-3.3l8.49,4.94A4.38,4.38,0,0,0,118.59,223.39Z"/></clipPath><clipPath id="clip-path-11" transform="translate(0)"><path class="cls-1" d="M125.9,134.81l8.49,4.93c-2.48-1.44-5.91-1.26-9.76,1l-8.49-4.93C120,133.55,123.42,133.37,125.9,134.81Z"/></clipPath><clipPath id="clip-path-12" transform="translate(0)"><path class="cls-2" d="M108.55,168.33l-8.49-4.94c-1.39-8.8,5-21.24,13.49-26.13L122,142.2C113.58,147.08,107.16,159.52,108.55,168.33Z"/></clipPath></defs><g id="Layer_2" data-name="Layer 2"><g id="Layer_1-2" data-name="Layer 1"><g class="cls-5"><g class="cls-5"><path class="cls-1" d="M18.73,185.24l-8.49-4.94A4.3,4.3,0,0,1,8.35,177l8.49,4.94A4.32,4.32,0,0,0,18.73,185.24Z" transform="translate(0)"/><g class="cls-6"><g class="cls-5"><path class="cls-1" d="M18.73,185.24l-8.49-4.94A4.31,4.31,0,0,1,8.35,177L16.84,182A4.33,4.33,0,0,0,18.73,185.24Z" transform="translate(0)"/><path class="cls-1" d="M16.84,182,8.35,177v0l8.49,4.94Z" transform="translate(0)"/></g></g></g><path class="cls-1" d="M26,96.66l8.49,4.93c-2.48-1.44-5.91-1.26-9.76,1l-8.49-4.93C20.12,95.4,23.55,95.22,26,96.66Z" transform="translate(0)"/><g class="cls-7"><g class="cls-5"><path class="cls-1" d="M24.76,102.55l-8.49-4.93c3.85-2.22,7.28-2.4,9.76-1l8.49,4.93C32,100.15,28.61,100.33,24.76,102.55Z" transform="translate(0)"/></g></g><polygon class="cls-1" points="16.84 181.94 8.35 177 0.19 125.24 8.68 130.18 16.84 181.94"/><polygon class="cls-2" points="22.18 104.05 13.69 99.11 16.27 97.62 24.76 102.55 22.18 104.05"/><g class="cls-5"><path class="cls-2" d="M8.68,130.18.19,125.24c-1.39-8.8,5-21.24,13.5-26.13l8.49,4.94C13.72,108.93,7.29,121.37,8.68,130.18Z" transform="translate(0)"/><g class="cls-8"><g class="cls-5"><path class="cls-2" d="M8.68,130.18.19,125.24a20.71,20.71,0,0,1,.74-8.72l8.49,4.93A20.75,20.75,0,0,0,8.68,130.18Z" transform="translate(0)"/><path class="cls-2" d="M9.42,121.45.93,116.52a32.53,32.53,0,0,1,4.8-9.88l8.49,4.93A32.64,32.64,0,0,0,9.42,121.45Z" transform="translate(0)"/><path class="cls-2" d="M14.22,111.57l-8.49-4.93a28.19,28.19,0,0,1,5.67-6l8.49,4.93A28.19,28.19,0,0,0,14.22,111.57Z" transform="translate(0)"/><path class="cls-2" d="M19.89,105.58l-8.49-4.93a19.94,19.94,0,0,1,2.29-1.54l8.49,4.94A20.75,20.75,0,0,0,19.89,105.58Z" transform="translate(0)"/></g></g></g><path class="cls-9" d="M24.76,102.55c8.46-4.88,14.93.11,13.6,10.49l-7.83,61a14.89,14.89,0,0,1-6.83,10.64c-3.1,1.79-6.22,1.36-6.86-2.73L8.68,130.18c-1.39-8.81,5-21.25,13.5-26.13Z" transform="translate(0)"/></g><g class="cls-5"><g class="cls-5"><path class="cls-3" d="M34.16,103l5.91,3.44c-2.51-1.46-6-1.25-9.82,1L24.33,104C28.17,101.74,31.65,101.53,34.16,103Z" transform="translate(0)"/><g class="cls-10"><g class="cls-5"><path class="cls-3" d="M30.25,107.39,24.33,104c3.84-2.21,7.32-2.42,9.83-1l5.91,3.44C37.56,105,34.08,105.18,30.25,107.39Z" transform="translate(0)"/></g></g></g><path class="cls-3" d="M31.62,113.17c5.22-3,9.48-.59,9.49,5.41s-4.21,13.33-9.43,16.35-9.49.59-9.5-5.41S26.39,116.18,31.62,113.17Z" transform="translate(0)"/><g class="cls-5"><path class="cls-4" d="M20.51,140.09l-5.92-3.44c-2.47-1.44-4-4.5-4-8.85,0-8.76,6.14-19.44,13.76-23.85l5.92,3.44c-7.63,4.4-13.8,15.08-13.77,23.85C16.49,135.59,18,138.65,20.51,140.09Z" transform="translate(0)"/><g class="cls-11"><g class="cls-5"><path class="cls-4" d="M20.51,140.09l-5.92-3.44c-2.2-1.27-3.66-3.83-4-7.44l5.91,3.44C16.85,136.25,18.31,138.81,20.51,140.09Z" transform="translate(0)"/><path class="cls-4" d="M16.54,132.65l-5.91-3.44q-.06-.68-.06-1.41c0-7.56,4.56-16.54,10.71-21.69l5.91,3.44C21,114.7,16.46,123.68,16.48,131.24Q16.48,132,16.54,132.65Z" transform="translate(0)"/><path class="cls-3" d="M27.19,109.55l-5.91-3.44a22,22,0,0,1,3-2.16l5.92,3.44A21.28,21.28,0,0,0,27.19,109.55Z" transform="translate(0)"/></g></g></g><g class="cls-5"><path class="cls-3" d="M31.62,113.17l-1.37-5.78c7.62-4.4,13.83-.86,13.85,7.9S38,134.73,30.34,139.13s-13.84.87-13.86-7.89,6.14-19.45,13.77-23.85l1.37,5.78c-5.23,3-9.46,10.35-9.44,16.35s4.27,8.43,9.5,5.41,9.45-10.34,9.43-16.35S36.84,110.15,31.62,113.17Z" transform="translate(0)"/><g class="cls-12"><g class="cls-5"><path class="cls-13" d="M31.62,113.17l-1.37-5.78c7.62-4.4,13.83-.86,13.85,7.9S38,134.73,30.34,139.13s-13.84.87-13.86-7.89,6.14-19.45,13.77-23.85l1.37,5.78c-5.23,3-9.46,10.35-9.44,16.35s4.27,8.43,9.5,5.41,9.45-10.34,9.43-16.35S36.84,110.15,31.62,113.17Z" transform="translate(0)"/></g></g></g></g><path class="cls-14" d="M29.38,58.16l-15.32-50Z" transform="translate(0)"/><rect class="cls-15" x="20.21" y="6.97" width="3.01" height="52.34" transform="translate(-8.75 7.81) rotate(-17.03)"/><path class="cls-16" d="M47.64,215.3A40,40,0,0,1,29.06,190c1.1,4.78,4.83,9.53,11.21,13.37,15.94,9.59,42.33,9.86,59,.59,7.13-4,11.31-9.06,12.48-14.34a39.77,39.77,0,0,1-8.94,17.6,41.65,41.65,0,0,1-15.87,11.16C74.25,223.42,58.84,222.22,47.64,215.3Z" transform="translate(0)"/><path class="cls-17" d="M99.49,101.35c15.54,9.36,15,24.26-1.19,33.29s-41.93,8.77-57.46-.58-15-24.26,1.19-33.29S84,92,99.49,101.35Z" transform="translate(0)"/><g class="cls-5"><path class="cls-18" d="M29,189.83,16.5,135.08c1.46,6.38,6.32,12.56,14.61,17.55,20.71,12.46,55,12.81,76.59.77,9.27-5.17,14.69-11.78,16.22-18.63L111.7,189.59c-1.17,5.28-5.35,10.36-12.48,14.34-16.62,9.27-43,9-58.95-.59C33.89,199.5,30.15,194.75,29,189.83Z" transform="translate(0)"/></g><path class="cls-1" d="M35.36,99.9c21.16-11.49,51.13-11.15,71.25.81-1.8-1.08-4.31-1-7.12.57C84,91.93,58.22,91.67,42,100.7S25.3,124.64,40.84,134s41.26,9.61,57.46.58,16.73-23.93,1.19-33.29c2.81-1.57,5.32-1.65,7.12-.57,4.21,2.72,10.58,6.84,15,15.5A28.12,28.12,0,0,1,124,134.64c-1.57,7-7,13.63-16.26,18.8-21.59,12-55.88,11.69-76.59-.78-8.28-5-13.14-11.15-14.61-17.53a27.9,27.9,0,0,1,2.26-18.75C20.3,113.5,24.4,105.85,35.36,99.9Z" transform="translate(0)"/><path class="cls-2" d="M92.72,33.77c11.91,7.17,11.51,18.61-.92,25.53S59.64,66,47.73,58.86s-11.51-18.61.91-25.54S80.8,26.6,92.72,33.77Z" transform="translate(0)"/><g class="cls-5"><path class="cls-18" d="M32,119.3C12.79,107.43,8.58,91.72,8.43,80.63c0,8.91,5.74,17.81,17.23,24.72,23.66,14.24,62.84,14.64,87.5.89,12.7-7.08,19.07-16.53,19.05-26a41.75,41.75,0,0,1-2.87,15.3,45.81,45.81,0,0,1-6.85,11.75c-.82,1.08-8.43,10.78-23.12,16.5C73.89,133.75,47.17,128.7,32,119.3Z" transform="translate(0)"/></g><path class="cls-17" d="M33.75,31.53a75.52,75.52,0,0,1,37.49-9c14,.18,26.6,3.51,37.39,9.91-4-2.43-9.68-2.19-15.91,1.28C80.8,26.6,61.06,26.4,48.64,33.32s-12.83,18.36-.91,25.54,31.65,7.37,44.07.44,12.83-18.36.92-25.53c6.23-3.47,11.87-3.71,15.91-1.28,5.69,3.67,23,14.85,23.55,38.68,0,9.44-6.35,18.89-19,26-24.67,13.76-63.84,13.36-87.51-.88C14.15,89.34,8.43,80.43,8.4,71.53a42.67,42.67,0,0,1,1.79-12.19,43.25,43.25,0,0,1,5.9-12.15C18.11,44,24.4,36.62,33.75,31.53Z" transform="translate(0)"/><path d="M82.46,106.47c-20,2.36-41.63-1.08-56.83-10.22C14.21,89.37,8.49,80.53,8.4,71.68a22.22,22.22,0,0,1,6.34-15.31c.08,7.94,5.21,15.87,15.45,22,13.63,8.2,33,11.28,51,9.17A162.1,162.1,0,0,1,82.46,106.47Z" transform="translate(0)"/><g class="cls-5"><path class="cls-1" d="M8.43,80.63l0-9.1c0,8.9,5.75,17.81,17.23,24.72,23.67,14.24,62.84,14.64,87.51.88,12.69-7.07,19.07-16.52,19-26l0,9.1c0,9.44-6.35,18.89-19.05,26-24.66,13.75-63.84,13.35-87.5-.89C14.17,98.44,8.45,89.54,8.43,80.63Z" transform="translate(0)"/></g><path class="cls-4" d="M18.46,80.9c-1.22,3.43-3.3,3.66-4.75.52-2.41-5.25,0-11.59,3.18-10.69a2.5,2.5,0,0,1,1.18.84C20.07,74.42,19,79.38,18.46,80.9Z" transform="translate(0)"/><path class="cls-4" d="M53.54,96.46c-.92,5.16-7.4,6-10.68,1.43-3.42-4.81.33-10.34,5.12-9.74l.58.1C52.78,89.47,54,93.79,53.54,96.46Z" transform="translate(0)"/><path class="cls-4" d="M111.34,74.26c0-3.05-2.15-4.29-4.79-2.77a10.61,10.61,0,0,0-4.8,8.31c0,3,2.15,4.29,4.8,2.76A10.6,10.6,0,0,0,111.34,74.26Z" transform="translate(0)"/><path class="cls-14" d="M107.17,77.09,142.1,50.88Z" transform="translate(0)"/><path class="cls-15" d="M107.17,78.6a1.51,1.51,0,0,1-.9-2.71L141.2,49.67A1.51,1.51,0,0,1,143,52.08L108.07,78.3A1.52,1.52,0,0,1,107.17,78.6Z" transform="translate(0)"/><path class="cls-4" d="M151,49a8.12,8.12,0,1,0-8.12,8.12A8.12,8.12,0,0,0,151,49Z" transform="translate(0)"/><path class="cls-4" d="M21.44,8.12a8.13,8.13,0,1,0-8.12,8.12A8.13,8.13,0,0,0,21.44,8.12Z" transform="translate(0)"/><g class="cls-5"><g class="cls-5"><path class="cls-3" d="M118.52,132.15l5.92,3.44c-2.51-1.46-6-1.26-9.83,1l-5.91-3.44C112.54,130.9,116,130.69,118.52,132.15Z" transform="translate(0)"/><g class="cls-19"><path class="cls-4" d="M114.61,136.55l-5.91-3.44c3.84-2.21,7.31-2.42,9.82-1l5.92,3.44C121.93,134.13,118.45,134.33,114.61,136.55Z" transform="translate(0)"/></g></g><path class="cls-3" d="M116,142.33c5.22-3,9.48-.59,9.49,5.41s-4.21,13.33-9.43,16.35-9.49.59-9.5-5.41S110.76,145.34,116,142.33Z" transform="translate(0)"/><g class="cls-5"><path class="cls-4" d="M104.88,169.25,99,165.81c-2.48-1.44-4-4.5-4-8.85,0-8.77,6.14-19.45,13.77-23.85l5.91,3.44c-7.62,4.4-13.79,15.08-13.76,23.84C100.86,164.75,102.4,167.81,104.88,169.25Z" transform="translate(0)"/><g class="cls-20"><g class="cls-5"><path class="cls-4" d="M104.88,169.25,99,165.81c-2.2-1.28-3.66-3.84-4-7.44l5.91,3.44C101.22,165.41,102.67,168,104.88,169.25Z" transform="translate(0)"/><path class="cls-4" d="M100.91,161.81,95,158.37c0-.45-.06-.93-.07-1.41,0-7.56,4.56-16.54,10.71-21.69l5.92,3.43c-6.15,5.16-10.73,14.14-10.71,21.69C100.85,160.88,100.87,161.35,100.91,161.81Z" transform="translate(0)"/><path class="cls-4" d="M111.56,138.7l-5.92-3.43a21.85,21.85,0,0,1,3.06-2.16l5.91,3.44A21.12,21.12,0,0,0,111.56,138.7Z" transform="translate(0)"/></g></g></g><g class="cls-5"><path class="cls-3" d="M116,142.33l-1.38-5.78c7.63-4.4,13.83-.87,13.86,7.9s-6.14,19.43-13.77,23.84-13.83.87-13.85-7.9S107,141,114.61,136.55l1.38,5.78c-5.23,3-9.46,10.34-9.44,16.35s4.27,8.43,9.5,5.41,9.45-10.35,9.43-16.35S121.21,139.31,116,142.33Z" transform="translate(0)"/><g class="cls-21"><g class="cls-5"><path class="cls-13" d="M116,142.33l-1.38-5.78c7.63-4.4,13.83-.87,13.86,7.9s-6.14,19.43-13.77,23.84-13.83.87-13.85-7.9S107,141,114.61,136.55l1.38,5.78c-5.23,3-9.46,10.34-9.44,16.35s4.27,8.43,9.5,5.41,9.45-10.35,9.43-16.35S121.21,139.31,116,142.33Z" transform="translate(0)"/></g></g></g></g><g class="cls-5"><g class="cls-5"><path class="cls-1" d="M118.59,223.39l-8.49-4.94a4.36,4.36,0,0,1-1.89-3.3l8.49,4.94A4.38,4.38,0,0,0,118.59,223.39Z" transform="translate(0)"/><g class="cls-22"><g class="cls-5"><path class="cls-1" d="M118.59,223.39l-8.49-4.94a4.31,4.31,0,0,1-1.88-3.27l8.49,4.94A4.36,4.36,0,0,0,118.59,223.39Z" transform="translate(0)"/><path class="cls-1" d="M116.71,220.12l-8.49-4.94v0l8.49,4.94Z" transform="translate(0)"/></g></g></g><path class="cls-1" d="M125.9,134.81l8.49,4.93c-2.48-1.44-5.91-1.26-9.76,1l-8.49-4.93C120,133.55,123.42,133.37,125.9,134.81Z" transform="translate(0)"/><g class="cls-23"><g class="cls-5"><path class="cls-1" d="M124.63,140.7l-8.49-4.93c3.85-2.22,7.28-2.4,9.76-1l8.49,4.93C131.91,138.3,128.48,138.48,124.63,140.7Z" transform="translate(0)"/></g></g><polygon class="cls-1" points="116.7 220.09 108.22 215.15 100.06 163.39 108.55 168.33 116.7 220.09"/><polygon class="cls-2" points="122.04 142.2 113.55 137.26 116.14 135.77 124.63 140.7 122.04 142.2"/><g class="cls-5"><path class="cls-2" d="M108.55,168.33l-8.49-4.94c-1.39-8.8,5-21.24,13.49-26.13L122,142.2C113.58,147.08,107.16,159.52,108.55,168.33Z" transform="translate(0)"/><g class="cls-24"><g class="cls-5"><path class="cls-2" d="M108.55,168.33l-8.49-4.94a20.53,20.53,0,0,1,.73-8.72l8.49,4.93A20.58,20.58,0,0,0,108.55,168.33Z" transform="translate(0)"/><path class="cls-2" d="M109.28,159.6l-8.49-4.93a32.76,32.76,0,0,1,4.8-9.88l8.49,4.93A32.88,32.88,0,0,0,109.28,159.6Z" transform="translate(0)"/><path class="cls-2" d="M114.08,149.72l-8.49-4.93a28.49,28.49,0,0,1,5.68-6l8.49,4.93A28.49,28.49,0,0,0,114.08,149.72Z" transform="translate(0)"/><path class="cls-2" d="M119.76,143.73l-8.49-4.93a20.73,20.73,0,0,1,2.28-1.54L122,142.2A20.63,20.63,0,0,0,119.76,143.73Z" transform="translate(0)"/></g></g></g><path class="cls-9" d="M124.63,140.7c8.46-4.88,14.93.11,13.6,10.49l-7.84,61a14.91,14.91,0,0,1-6.82,10.64c-3.11,1.79-6.22,1.36-6.87-2.73l-8.15-51.76c-1.39-8.81,5-21.25,13.49-26.13Z" transform="translate(0)"/></g></g></g></svg>