<svg xmlns="http://www.w3.org/2000/svg" xmlns:xlink="http://www.w3.org/1999/xlink" viewBox="0 0 118.65 154.07"><defs><style>.cls-1{fill:#dad9e8;}.cls-2{fill:#ebebf1;}.cls-3{fill:#e4e3ee;}.cls-4{fill:#4cdead;}.cls-5{isolation:isolate;}.cls-6{clip-path:url(#clip-path);}.cls-7{clip-path:url(#clip-path-2);}.cls-8{clip-path:url(#clip-path-3);}.cls-9{fill:#c4c3ec;}.cls-10{fill:#042f8f;}.cls-11{fill:#919dd6;}.cls-12{fill:#b7b6e3;}.cls-13{fill:#1393f2;}.cls-14{clip-path:url(#clip-path-4);}.cls-15{clip-path:url(#clip-path-5);}.cls-16{clip-path:url(#clip-path-6);}</style><clipPath id="clip-path"><path class="cls-1" d="M77,94.83l5.15-3a2.55,2.55,0,0,0,1.06-2.33l-5.15,3A2.54,2.54,0,0,1,77,94.83Z"/></clipPath><clipPath id="clip-path-2"><path class="cls-2" d="M67.77,67.08l-5.14,3a2.55,2.55,0,0,1,2.57.25l5.15-3A2.57,2.57,0,0,0,67.77,67.08Z"/></clipPath><clipPath id="clip-path-3"><path class="cls-3" d="M78,81.9l5.15-3a8,8,0,0,0-3.61-6.26l-5.15,3A8,8,0,0,1,78,81.9Z"/></clipPath><clipPath id="clip-path-4"><path class="cls-1" d="M15.42,122.83l5.14-3a2.55,2.55,0,0,0,1.07-2.33l-5.15,3A2.55,2.55,0,0,1,15.42,122.83Z"/></clipPath><clipPath id="clip-path-5"><path class="cls-2" d="M6.24,95.08l-5.15,3a2.57,2.57,0,0,1,2.58.25l5.15-3A2.57,2.57,0,0,0,6.24,95.08Z"/></clipPath><clipPath id="clip-path-6"><path class="cls-3" d="M16.51,109.9l5.15-3A8,8,0,0,0,18,100.65l-5.14,3A8,8,0,0,1,16.51,109.9Z"/></clipPath></defs><g id="Layer_2" data-name="Layer 2"><g id="Layer_1-2" data-name="Layer 1"><path class="cls-4" d="M93.39,101.83c-.44,0-.89,0-1.34,0A20.61,20.61,0,0,1,74.28,87.26a1.89,1.89,0,1,1,3.63-1,16.24,16.24,0,0,0,30.43,2.27,1.88,1.88,0,0,1,3.43,1.55A20.67,20.67,0,0,1,93.39,101.83Z"/><path class="cls-3" d="M118.65,86.74a7.33,7.33,0,1,0-7.33,7.33A7.33,7.33,0,0,0,118.65,86.74Z"/><g class="cls-5"><g class="cls-5"><path class="cls-1" d="M77,94.83l5.15-3a2.55,2.55,0,0,0,1.06-2.33l-5.15,3A2.54,2.54,0,0,1,77,94.83Z"/><g class="cls-6"><g class="cls-5"><path class="cls-1" d="M77,94.83l5.15-3a2.37,2.37,0,0,0,1-2l-5.14,3A2.38,2.38,0,0,1,77,94.83Z"/><path class="cls-1" d="M78,92.87l5.14-3c0-.12,0-.24,0-.37l-5.15,3C78,92.63,78,92.75,78,92.87Z"/></g></g></g><g class="cls-5"><path class="cls-2" d="M67.77,67.08l-5.14,3a2.55,2.55,0,0,1,2.57.25l5.15-3A2.57,2.57,0,0,0,67.77,67.08Z"/><g class="cls-7"><g class="cls-5"><path class="cls-2" d="M65.2,70.32l5.15-3a2.57,2.57,0,0,0-2.58-.25l-5.14,3A2.55,2.55,0,0,1,65.2,70.32Z"/></g></g></g><polygon class="cls-1" points="78.01 92.51 83.16 89.51 83.19 78.91 78.04 81.9 78.01 92.51"/><polygon class="cls-2" points="74.43 75.64 79.58 72.65 70.35 67.33 65.2 70.32 74.43 75.64"/><g class="cls-5"><path class="cls-3" d="M78,81.9l5.15-3a8,8,0,0,0-3.61-6.26l-5.15,3A8,8,0,0,1,78,81.9Z"/><g class="cls-8"><g class="cls-5"><path class="cls-3" d="M78,81.9l5.15-3a8.15,8.15,0,0,0-2.82-5.7l-5.14,3A8.09,8.09,0,0,1,78,81.9Z"/><path class="cls-2" d="M75.23,76.21l5.14-3a6,6,0,0,0-.79-.56l-5.15,3A5.89,5.89,0,0,1,75.23,76.21Z"/></g></g></g><path class="cls-9" d="M65.2,70.32c-2-1.15-3.63-.22-3.64,2.07l0,10.6a8,8,0,0,0,3.62,6.26l9.23,5.33c2,1.15,3.63.22,3.63-2.07L78,81.9a8,8,0,0,0-3.61-6.26Z"/><path class="cls-10" d="M66.49,73.73c-1.43-.83-2.61-.16-2.61,1.49l0,7.62a5.73,5.73,0,0,0,2.59,4.5l6.64,3.83c1.43.83,2.61.16,2.61-1.49l0-7.62a5.73,5.73,0,0,0-2.59-4.5Z"/></g><path class="cls-11" d="M64.87,148.15c10.89-6.74,13.29-15.52,13.37-21.7,0,5.23-3.37,10.46-10.12,14.52-13.9,8.37-36.92,8.6-51.41.52-7.46-4.16-11.21-9.71-11.19-15.25a23.57,23.57,0,0,0,5.42,15,33,33,0,0,0,13.43,9.54A49.11,49.11,0,0,0,44.74,154C50.21,153.61,58.14,152.31,64.87,148.15Z"/><path class="cls-12" d="M78.24,126.45l.1-35.08c0,5.23-3.37,10.46-10.12,14.52-13.9,8.37-36.92,8.6-51.41.52C9.35,102.25,5.6,96.71,5.62,91.16l-.1,35.08c0,5.54,3.73,11.09,11.19,15.25,14.49,8.08,37.51,7.85,51.41-.52C74.87,136.91,78.23,131.68,78.24,126.45Z"/><path class="cls-3" d="M15.74,76.63C1.84,85,2.31,98.33,16.81,106.41s37.51,7.85,51.41-.52,13.42-21.7-1.07-29.78S29.64,68.26,15.74,76.63Z"/><g class="cls-5"><path class="cls-12" d="M63.51,97.36c9.57-5.91,11.77-13.28,12.6-16-1,3.79-4,7.43-8.93,10.4-12.83,7.72-34.07,7.93-47.44.48-5.53-3.08-8.85-7-9.94-11.07A26.69,26.69,0,0,0,16.8,93c3.7,3.45,7.42,6,14.52,8.16C41.62,104.24,54.86,102.69,63.51,97.36Z"/></g><path class="cls-3" d="M29.27,34.21c-7.31,4.4-7.06,11.42.56,15.67s19.73,4.12,27-.28,7.06-11.41-.56-15.66S36.58,29.81,29.27,34.21Z"/><path class="cls-1" d="M65.71,32.8a46.89,46.89,0,0,0-23.28-5.56A45.89,45.89,0,0,0,19.22,33.4c2.53-1.53,6.06-1.41,10.05.81,7.31-4.4,19.42-4.52,27-.27s7.87,11.26.56,15.66-19.42,4.53-27,.28S22,38.61,29.27,34.21c-4-2.22-7.52-2.34-10-.81-3.13,2-8.94,5.78-12.44,13.57A26.18,26.18,0,0,0,5.34,64.31c1.25,4.71,5,9.15,11.3,12.65,15.18,8.47,39.3,8.22,53.87-.54,5.6-3.38,9-7.51,10.14-11.81a26,26,0,0,0-1.81-18.46A30.84,30.84,0,0,0,65.71,32.8Z"/><path d="M29.18,72.6c.17,2.49,1.51,6.86,8.53,8.13,11.81,1,24.22-1.24,33.1-6.59A25.24,25.24,0,0,0,79,66.72c4.86-9-.42-18.09-5.58-16.25a4.49,4.49,0,0,0-1.48,1.16,20.22,20.22,0,0,1-6.56,6c-7.13,4.29-17.08,6.07-26.56,5.29A9.52,9.52,0,0,0,29.18,72.6Z"/><path class="cls-1" d="M76.11,81.31l4.54-16.7c-1.17,4.3-4.54,8.44-10.14,11.81-14.57,8.76-38.69,9-53.87.54-6.28-3.5-10-7.94-11.28-12.57L9.8,81.12c1.09,4.07,4.41,8,9.94,11.07,13.37,7.45,34.61,7.24,47.44-.48C72.11,88.74,75.08,85.1,76.11,81.31Z"/><path class="cls-4" d="M73.73,66.47a1.46,1.46,0,0,1,0,.2,20.31,20.31,0,0,0,5.58-6.39c-.76-3.2-3.33-4.71-5-2.93C72.28,60,73.72,66.41,73.73,66.47Z"/><path class="cls-4" d="M43.73,75.46c0,.07,0,.15,0,.22a60.79,60.79,0,0,0,12-1.19c-.23-3.71-3.11-6.53-6.43-6.29C45.55,68.69,43.66,72.73,43.73,75.46Z"/><path class="cls-4" d="M22.31,77.56a15.22,15.22,0,0,0-6.89-11.94c-3.81-2.2-6.9-.42-6.9,4a15.23,15.23,0,0,0,6.9,11.94C19.23,83.74,22.31,82,22.31,77.56Z"/><path class="cls-4" d="M19.27,75.8a8.51,8.51,0,0,0-3.85-6.67c-2.13-1.23-3.85-.23-3.85,2.23A8.51,8.51,0,0,0,15.42,78C17.55,79.26,19.27,78.26,19.27,75.8Z"/><path class="cls-13" d="M59.6,32,63.93,6.07Z"/><path d="M59.61,33.17l-.2,0a1.18,1.18,0,0,1-1-1.35L62.77,5.87a1.18,1.18,0,0,1,2.33.39L60.77,32.18A1.19,1.19,0,0,1,59.61,33.17Z"/><path class="cls-4" d="M69.15,5.09a5,5,0,1,0-5.09,5A5,5,0,0,0,69.15,5.09Z"/><path class="cls-13" d="M25.48,50.43,7.75,30.4Z"/><path d="M25.48,51.6a1.2,1.2,0,0,1-.89-.39l-17.73-20a1.18,1.18,0,0,1,1.77-1.56l17.73,20a1.17,1.17,0,0,1-.88,2Z"/><path class="cls-4" d="M12.79,30.44a5,5,0,1,0-5.08,5A5,5,0,0,0,12.79,30.44Z"/><path class="cls-4" d="M35.67,140.34A27.8,27.8,0,0,1,8.51,118.86a1.88,1.88,0,1,1,3.67-.86,24.13,24.13,0,0,0,33.4,16.47,1.88,1.88,0,0,1,1.55,3.43A27.86,27.86,0,0,1,35.67,140.34Z"/><circle class="cls-3" cx="47.65" cy="135.48" r="7.52" transform="translate(-95.15 150.73) rotate(-76.72)"/><g class="cls-5"><g class="cls-5"><path class="cls-1" d="M15.42,122.83l5.14-3a2.55,2.55,0,0,0,1.07-2.33l-5.15,3A2.55,2.55,0,0,1,15.42,122.83Z"/><g class="cls-14"><g class="cls-5"><path class="cls-1" d="M15.42,122.83l5.14-3a2.38,2.38,0,0,0,1.05-2l-5.15,3A2.37,2.37,0,0,1,15.42,122.83Z"/><path class="cls-1" d="M16.46,120.87l5.15-3c0-.12,0-.24,0-.37l-5.15,3C16.48,120.63,16.47,120.75,16.46,120.87Z"/></g></g></g><g class="cls-5"><path class="cls-2" d="M6.24,95.08l-5.15,3a2.57,2.57,0,0,1,2.58.25l5.15-3A2.57,2.57,0,0,0,6.24,95.08Z"/><g class="cls-15"><g class="cls-5"><path class="cls-2" d="M3.67,98.32l5.15-3a2.57,2.57,0,0,0-2.58-.25l-5.15,3A2.57,2.57,0,0,1,3.67,98.32Z"/></g></g></g><polygon class="cls-1" points="16.48 120.5 21.63 117.51 21.66 106.91 16.51 109.9 16.48 120.5"/><polygon class="cls-2" points="12.9 103.64 18.04 100.65 8.82 95.33 3.67 98.32 12.9 103.64"/><g class="cls-5"><path class="cls-3" d="M16.51,109.9l5.15-3A8,8,0,0,0,18,100.65l-5.14,3A8,8,0,0,1,16.51,109.9Z"/><g class="cls-16"><g class="cls-5"><path class="cls-3" d="M16.51,109.9l5.15-3a8.19,8.19,0,0,0-2.82-5.7l-5.15,3A8.14,8.14,0,0,1,16.51,109.9Z"/><path class="cls-2" d="M13.69,104.21l5.15-3a6.07,6.07,0,0,0-.8-.56l-5.14,3A5.81,5.81,0,0,1,13.69,104.21Z"/></g></g></g><path class="cls-9" d="M3.67,98.32C1.67,97.17,0,98.1,0,100.39L0,111a8,8,0,0,0,3.62,6.26l9.22,5.33c2,1.15,3.63.22,3.64-2.08l0-10.6a8,8,0,0,0-3.61-6.26Z"/><path class="cls-4" d="M5,101.73c-1.44-.83-2.61-.16-2.62,1.49l0,7.62a5.77,5.77,0,0,0,2.6,4.5l6.63,3.83c1.43.83,2.61.16,2.62-1.49l0-7.62a5.77,5.77,0,0,0-2.6-4.5Z"/></g></g></g></svg>