<svg xmlns="http://www.w3.org/2000/svg" xmlns:xlink="http://www.w3.org/1999/xlink" viewBox="0 0 263.19 165.26"><defs><style>.cls-1{fill:#919dd6;}.cls-2{fill:#c3cbe3;}.cls-3{fill:#4cdead;}.cls-4{fill:#e4e3ee;}.cls-5{isolation:isolate;}.cls-6{clip-path:url(#clip-path);}.cls-7{fill:#b7b6e3;}.cls-8{clip-path:url(#clip-path-2);}.cls-9{clip-path:url(#clip-path-3);}.cls-10{clip-path:url(#clip-path-4);}.cls-11{clip-path:url(#clip-path-5);}.cls-12{fill:#09162e;}.cls-13{fill:#01084e;}.cls-14{fill:#dad9e8;}</style><clipPath id="clip-path"><path class="cls-1" d="M29.22,46.31a8.74,8.74,0,0,0,.07,1.1c.08.59.21,1.06.21,1.08a8.66,8.66,0,0,0,.93,2.18,8.9,8.9,0,0,0,1.3,1.65,12.27,12.27,0,0,0,1,.88,11.41,11.41,0,0,0,1.09.72,2.62,2.62,0,0,1-.85-2.3C30.48,50.16,29.23,48.24,29.22,46.31Z"/></clipPath><clipPath id="clip-path-2"><path class="cls-2" d="M258.56,86.9l-146-84.84a.92.92,0,0,0-1,0L257.59,87A.92.92,0,0,1,258.56,86.9Z"/></clipPath><clipPath id="clip-path-3"><path class="cls-1" d="M33.85,53.92l14.6,8.49,14.6,8.48,14.6,8.49,14.6,8.48,14.6,8.49,14.6,8.48,14.6,8.49,14.6,8.48,14.6,8.49,14.6,8.48a2.62,2.62,0,0,1-.85-2.31L33,51.62A2.62,2.62,0,0,0,33.85,53.92Z"/></clipPath><clipPath id="clip-path-4"><path class="cls-1" d="M196.62,138.77l6.19-3.57,6.19-3.57,6.19-3.58,6.19-3.57,6.19-3.58,6.19-3.57,6.19-3.57,6.19-3.58,6.19-3.57,6.19-3.58a2.62,2.62,0,0,0,.84-2.31l-61.91,35.74A2.65,2.65,0,0,1,196.62,138.77Z"/></clipPath><clipPath id="clip-path-5"><path class="cls-1" d="M179.85,138.77l.7.38c.24.12.58.28.84.38.46.18,1.09.4,1.57.56.26.08.62.16.88.23a19.19,19.19,0,0,0,4.38.49,19,19,0,0,0,4.37-.49c.26-.06.6-.14.85-.22.48-.15,1.11-.37,1.58-.55a11.39,11.39,0,0,0,1.6-.78,2.65,2.65,0,0,0,.83-2.31c-5.09,2.94-13.4,2.94-18.45,0A2.62,2.62,0,0,0,179.85,138.77Z"/></clipPath></defs><g id="Layer_2" data-name="Layer 2"><g id="Layer_1-2" data-name="Layer 1"><polygon class="cls-3" points="180.74 155.73 104.58 111.8 157.36 82.38 157.87 83.28 106.68 111.82 181.25 154.83 180.74 155.73"/><polygon class="cls-3" points="71.66 111.78 71.4 111.63 17.91 80.75 18.43 79.85 71.66 110.58 145.08 67.9 145.6 68.8 71.66 111.78"/><rect class="cls-3" x="51.33" y="104.02" width="105.24" height="1.04" transform="translate(-38.36 66.05) rotate(-30.03)"/><polygon class="cls-3" points="105.19 163.08 104.67 162.18 135.71 144.14 105.96 126.97 168.18 90.88 168.7 91.78 108.04 126.97 137.78 144.14 105.19 163.08"/><path class="cls-3" d="M3.5,109.23l-.51-.9,44.32-25.2L75.6,99.62c14.37-8.51,59.82-35.38,61-35.55l.07.52.13.5c-1.63.57-44.51,25.87-60.89,35.58l-.26.15L47.3,84.33Z"/><path class="cls-3" d="M61.63,129.05A7.11,7.11,0,0,0,55.2,129c-1.78,1-1.8,2.67,0,3.72a7.11,7.11,0,0,0,6.43.06C63.39,131.76,63.4,130.09,61.63,129.05Z"/><rect class="cls-3" x="133.47" y="127.93" width="105.24" height="1.04" transform="translate(-39.3 110.37) rotate(-30.03)"/><path class="cls-3" d="M143.77,153a7.11,7.11,0,0,0-6.43-.06c-1.79,1-1.8,2.67,0,3.71a7.11,7.11,0,0,0,6.43.06C145.52,155.66,145.54,154,143.77,153Z"/><path class="cls-3" d="M183.39,153.46a7.08,7.08,0,0,0-6.43-.06c-1.78,1-1.8,2.67,0,3.71a7.11,7.11,0,0,0,6.43.06C185.15,156.16,185.16,154.5,183.39,153.46Z"/><path class="cls-3" d="M21.41,78.35A7.13,7.13,0,0,0,15,78.29c-1.78,1-1.8,2.68,0,3.72a7.11,7.11,0,0,0,6.43.06C23.16,81.06,23.17,79.4,21.41,78.35Z"/><polygon class="cls-3" points="72.27 86.95 72.01 86.8 18.53 55.92 19.05 55.02 72.27 85.75 145.69 43.07 146.22 43.97 72.27 86.95"/><path class="cls-3" d="M22,53.53a7.11,7.11,0,0,0-6.43-.06c-1.79,1-1.8,2.67,0,3.71a7.13,7.13,0,0,0,6.44.06C23.77,56.23,23.79,54.57,22,53.53Z"/><path class="cls-3" d="M7.78,106.28a7.08,7.08,0,0,0-6.43-.06c-1.79,1-1.8,2.67,0,3.71a7.11,7.11,0,0,0,6.43.06C9.53,109,9.55,107.32,7.78,106.28Z"/><path class="cls-3" d="M108.16,160.8a7.11,7.11,0,0,0-6.43-.06c-1.78,1-1.8,2.68,0,3.72a7.11,7.11,0,0,0,6.43.06C109.92,163.51,109.93,161.84,108.16,160.8Z"/><path class="cls-4" d="M96.44,2a.4.4,0,0,0-.15,0h-.08l-.15,0H96a1,1,0,0,0-.2.08L96,1.92l.29-.15.28-.15.74-.33c.24-.1.58-.22.83-.31L99,.72,99.82.5l.28-.06.46-.09.11,0h0a18.92,18.92,0,0,1,6.8,0l.2,0,.87.18.83.21.85.28.77.29a11.92,11.92,0,0,1,1.54.77h0l7.3,4.24,7.3,4.24,7.3,4.24,7.3,4.24,7.3,4.25,7.3,4.24,7.3,4.24L171,36l7.3,4.25,7.3,4.24,7.3,4.24,7.3,4.24,7.3,4.25,7.3,4.24,7.3,4.24,7.3,4.24,7.3,4.24,7.3,4.25,7.3,4.24,7.3,4.24-.16-.07L112.44,2a.91.91,0,0,0-.85.09c-4-2.36-10.76-2.36-14.84,0L96.53,2Z"/><g class="cls-5"><path class="cls-4" d="M112.56,2.06a.92.92,0,0,0-1,0c-4-2.36-10.76-2.36-14.84,0a.93.93,0,0,0-1-.05,15.3,15.3,0,0,1,4-1.55A19.6,19.6,0,0,1,104.19,0a19,19,0,0,1,4.38.5c.27.06.62.15.88.23.48.15,1.11.37,1.57.55.26.1.6.27.85.39S112.35,1.94,112.56,2.06Z"/><g class="cls-5"><path class="cls-4" d="M34.85,37.84,96.75,2.1,96.58,2,93.49,3.8l-3.1,1.79L87.3,7.38,84.2,9.17,81.1,11,78,12.74l-3.1,1.79-3.09,1.78-3.1,1.79-3.09,1.79-3.1,1.78-3.09,1.79-3.1,1.79L53.25,27l-3.1,1.78-3.09,1.79L44,32.4l-3.09,1.78L37.77,36l-3.09,1.79Z"/><path class="cls-4" d="M34.68,37.76,37.77,36l3.1-1.79L44,32.4l3.1-1.79,3.09-1.79L53.25,27l3.09-1.79,3.1-1.79,3.09-1.79,3.1-1.78,3.09-1.79,3.1-1.79,3.09-1.78L78,12.74,81.1,11l3.1-1.78,3.1-1.79,3.09-1.79,3.1-1.79L96.58,2a.87.87,0,0,0-.79,0L89.6,5.63,83.41,9.2l-6.19,3.57L71,16.35l-6.19,3.57L58.65,23.5l-6.19,3.57-6.19,3.57-6.19,3.58L37,36l-3.1,1.78A.87.87,0,0,1,34.68,37.76Z"/></g><path class="cls-1" d="M29.22,46.31a8.74,8.74,0,0,0,.07,1.1c.08.59.21,1.06.21,1.08a8.66,8.66,0,0,0,.93,2.18,8.9,8.9,0,0,0,1.3,1.65,12.27,12.27,0,0,0,1,.88,11.41,11.41,0,0,0,1.09.72,2.62,2.62,0,0,1-.85-2.3C30.48,50.16,29.23,48.24,29.22,46.31Z"/><g class="cls-6"><path class="cls-1" d="M29.22,46.31a8.65,8.65,0,0,0,4.63,7.61,2.62,2.62,0,0,1-.85-2.3C30.48,50.16,29.23,48.24,29.22,46.31Z"/></g><g class="cls-5"><path class="cls-7" d="M29.22,45.48v.83c0,1.93,1.26,3.85,3.78,5.31v-.83C30.48,49.33,29.22,47.41,29.22,45.48Z"/></g><path class="cls-2" d="M258.56,86.9l-146-84.84a.92.92,0,0,0-1,0L257.59,87A.92.92,0,0,1,258.56,86.9Z"/><g class="cls-8"><path class="cls-4" d="M111.59,2.1,257.59,87a1,1,0,0,1,.81-.12L112.4,2A1,1,0,0,0,111.59,2.1Z"/></g><g class="cls-5"><path class="cls-1" d="M258.52,103a8.84,8.84,0,0,0,4.67-7.69c0,2-1.27,3.9-3.83,5.38A2.65,2.65,0,0,1,258.52,103Z"/></g><g class="cls-5"><path class="cls-7" d="M259.35,99.9v.82c2.56-1.48,3.84-3.43,3.83-5.38v-.83C263.19,96.46,261.91,98.42,259.35,99.9Z"/></g><g class="cls-5"><g class="cls-5"><path class="cls-4" d="M263.19,94.51a8.66,8.66,0,0,0-4.63-7.61.92.92,0,0,0-1,0c4.06,2.35,4,6.24,0,8.59,1,.58,1.81,2.53,1.81,4.36C261.91,98.42,263.19,96.46,263.19,94.51Z"/><path class="cls-7" d="M258.4,86.83c5.74,3.31,6.19,9.46.89,12.19a6.51,6.51,0,0,1,.06.88c2.56-1.48,3.84-3.44,3.84-5.39,0-.14,0-.34,0-.49A7.53,7.53,0,0,0,263,93l-.1-.48c-.05-.18-.11-.42-.17-.59l-.17-.48c-.08-.18-.18-.43-.27-.61l-.25-.47c-.12-.2-.29-.46-.42-.65l-.35-.47c-.21-.24-.49-.55-.71-.78l-.51-.45a11.28,11.28,0,0,0-1.53-1.07Z"/></g></g><path class="cls-1" d="M33.85,53.92l14.6,8.49,14.6,8.48,14.6,8.49,14.6,8.48,14.6,8.49,14.6,8.48,14.6,8.49,14.6,8.48,14.6,8.49,14.6,8.48a2.62,2.62,0,0,1-.85-2.31L33,51.62A2.62,2.62,0,0,0,33.85,53.92Z"/><g class="cls-9"><g class="cls-5"><path class="cls-1" d="M179,136.46,33,51.62a2.62,2.62,0,0,0,.85,2.3l14.6,8.49,14.6,8.48,14.6,8.49,14.6,8.48,14.6,8.49,14.6,8.48,14.6,8.49,14.6,8.48,14.6,8.49,14.6,8.48A2.62,2.62,0,0,1,179,136.46Z"/></g></g><path class="cls-1" d="M196.62,138.77l6.19-3.57,6.19-3.57,6.19-3.58,6.19-3.57,6.19-3.58,6.19-3.57,6.19-3.57,6.19-3.58,6.19-3.57,6.19-3.58a2.62,2.62,0,0,0,.84-2.31l-61.91,35.74A2.65,2.65,0,0,1,196.62,138.77Z"/><g class="cls-10"><path class="cls-1" d="M259.36,100.72l-61.91,35.74a2.65,2.65,0,0,1-.83,2.31l6.19-3.57,6.19-3.57,6.19-3.58,6.19-3.57,6.19-3.58,6.19-3.57,6.19-3.57,6.19-3.58,6.19-3.57,6.19-3.58A2.62,2.62,0,0,0,259.36,100.72Z"/></g><polygon class="cls-7" points="32.99 50.79 33 51.62 179 136.46 179 135.64 32.99 50.79"/><polygon class="cls-7" points="197.45 135.64 197.45 136.46 259.36 100.72 259.35 99.9 197.45 135.64"/><g class="cls-5"><path class="cls-4" d="M180.86,131.28l-146-84.84a1.61,1.61,0,0,0-.42.33l146,84.84A2.18,2.18,0,0,1,180.86,131.28Z"/></g><g class="cls-5"><g class="cls-5"><path class="cls-4" d="M257.54,95.54l-61.9,35.74a1.94,1.94,0,0,1,.4.32L258,95.86A2,2,0,0,0,257.54,95.54Z"/><path class="cls-4" d="M258,95.86,196,131.6a4.42,4.42,0,0,1,.86,1.35l61.9-35.74A4.4,4.4,0,0,0,258,95.86Z"/><path class="cls-4" d="M258.8,97.21,196.9,133a7.41,7.41,0,0,1,.49,1.81L259.29,99A7,7,0,0,0,258.8,97.21Z"/><path class="cls-7" d="M259.29,99l-61.9,35.74a6.51,6.51,0,0,1,.06.88l61.9-35.74A6.51,6.51,0,0,0,259.29,99Z"/></g></g><path class="cls-1" d="M179.85,138.77l.7.38c.24.12.58.28.84.38.46.18,1.09.4,1.57.56.26.08.62.16.88.23a19.19,19.19,0,0,0,4.38.49,19,19,0,0,0,4.37-.49c.26-.06.6-.14.85-.22.48-.15,1.11-.37,1.58-.55a11.39,11.39,0,0,0,1.6-.78,2.65,2.65,0,0,0,.83-2.31c-5.09,2.94-13.4,2.94-18.45,0A2.62,2.62,0,0,0,179.85,138.77Z"/><g class="cls-11"><path class="cls-1" d="M179.85,138.77a18.13,18.13,0,0,0,16.77,0,2.65,2.65,0,0,0,.83-2.31c-5.09,2.94-13.4,2.94-18.45,0A2.62,2.62,0,0,0,179.85,138.77Z"/></g><g class="cls-5"><path class="cls-7" d="M179,135.64v.82c5.05,2.94,13.36,2.94,18.45,0v-.82C192.36,138.58,184.05,138.58,179,135.64Z"/></g><g class="cls-5"><path class="cls-4" d="M179.05,134.76a5,5,0,0,1,1.75-3.48c4,2.36,10.76,2.36,14.84,0a5.07,5.07,0,0,1,1.75,3.48C192.31,137.66,184.1,137.66,179.05,134.76Z"/><path class="cls-7" d="M197.39,134.76a8.67,8.67,0,0,1,.06.88c-5.09,2.94-13.4,2.94-18.46,0a8.67,8.67,0,0,1,.06-.88C184.1,137.66,192.31,137.66,197.39,134.76Z"/><path class="cls-4" d="M195.64,131.28c-4.08,2.36-10.79,2.36-14.84,0a5,5,0,0,0-1.75,3.48l-.06,0c0-1.83.81-3.78,1.81-4.35,4,2.36,10.76,2.36,14.84,0,1,.57,1.8,2.52,1.81,4.35l-.06,0A5.07,5.07,0,0,0,195.64,131.28Z"/></g><path class="cls-4" d="M34.8,46.44c-4.06-2.36-4-6.24.05-8.6L96.75,2.1c4.08-2.36,10.79-2.36,14.84,0l1.94,1.13L36.74,47.56Z"/><path d="M113.53,3.23,257.59,87c4.06,2.35,4,6.24,0,8.59l-61.9,35.74c-4.08,2.36-10.79,2.36-14.84,0L36.74,47.56Z"/></g><path class="cls-4" d="M34.44,46.77l146,84.84a5.76,5.76,0,0,0-1.45,3.12L33,50.44A6.05,6.05,0,0,1,34.44,46.77Z"/><path class="cls-7" d="M179.06,134.77a6.38,6.38,0,0,0-.07.87L33,50.79a2.08,2.08,0,0,1,0-.35Z"/><g class="cls-5"><path class="cls-4" d="M33.89,37.79a8.85,8.85,0,0,0-4.67,7.69c0,1.93,1.26,3.85,3.78,5.31,0-1.72.8-3.77,1.8-4.35-4.06-2.36-4-6.24.05-8.6A.93.93,0,0,0,33.89,37.79Z"/></g><path class="cls-7" d="M29.26,44.59c0,.18,0,.36,0,.55,0,1.92,1.26,3.84,3.77,5.31,0,.11,0,.23,0,.34-2.52-1.46-3.78-3.38-3.78-5.31C29.22,45.18,29.24,44.88,29.26,44.59Z"/><path class="cls-3" d="M146.31,89.24c-9.31,0-18.61-2-25.7-6.13s-10.86-9.47-10.86-15.27,3.86-11.21,10.86-15.26c14.17-8.18,37.22-8.18,51.39,0,7,4.05,10.86,9.47,10.86,15.26S179,79.06,172,83.11,155.61,89.24,146.31,89.24Zm-25-35.38c-6.52,3.77-10.12,8.74-10.12,14s3.6,10.22,10.12,14c13.76,7.94,36.15,7.94,49.91,0,6.53-3.77,10.12-8.74,10.12-14s-3.59-10.21-10.12-14C157.5,45.92,135.11,45.92,121.35,53.86Z"/><path class="cls-3" d="M146.31,95.59c-12.13,0-24.25-2.66-33.48-8-9.08-5.25-14.08-12.26-14.08-19.76s5-14.51,14.08-19.75c18.46-10.66,48.49-10.66,67,0,9.08,5.24,14.08,12.26,14.08,19.75s-5,14.51-14.08,19.76S158.43,95.59,146.31,95.59Zm0-54c-11.86,0-23.71,2.61-32.74,7.82-8.6,5-13.34,11.53-13.34,18.47S105,81.35,113.57,86.32c18.05,10.42,47.42,10.42,65.47,0,8.61-5,13.34-11.53,13.34-18.48S187.65,54.34,179,49.37C170,44.16,158.16,41.55,146.31,41.55Z"/><path class="cls-3" d="M146.31,83.71c-6.85,0-13.7-1.51-18.92-4.52s-8-7-8-11.35,2.86-8.35,8-11.34c10.43-6,27.4-6,37.83,0,5.19,3,8.05,7,8.05,11.34s-2.86,8.35-8.05,11.35S153.16,83.71,146.31,83.71ZM128.13,57.78c-4.71,2.72-7.31,6.29-7.31,10.06s2.6,7.35,7.31,10.07c10,5.79,26.33,5.79,36.35,0,4.72-2.72,7.31-6.3,7.31-10.07s-2.59-7.34-7.31-10.06C154.46,52,138.16,52,128.13,57.78Z"/><path class="cls-12" d="M98.38,6.87c1.4.81,1.4,2.12,0,2.92a5.57,5.57,0,0,1-5.06,0c-1.4-.81-1.4-2.12,0-2.92A5.6,5.6,0,0,1,98.38,6.87Z"/><path class="cls-12" d="M102.9,4.11a1,1,0,0,1,0,1.86,3.55,3.55,0,0,1-3.22,0,1,1,0,0,1,0-1.86A3.55,3.55,0,0,1,102.9,4.11Z"/><path class="cls-13" d="M73.58,23.52l5.07-2.92a1.1,1.1,0,0,0,0-2.09,4,4,0,0,0-3.62,0L70,21.42a1.1,1.1,0,0,0,0,2.09A4,4,0,0,0,73.58,23.52Z"/><path class="cls-14" d="M201.68,134.23a2.32,2.32,0,0,1-1,1.81c-.41.24-.77.16-.94-.15a.86.86,0,0,1-.11-.45,2.33,2.33,0,0,1,1-1.82,1.05,1.05,0,0,1,.41-.14C201.42,133.46,201.68,133.73,201.68,134.23Z"/><path class="cls-12" d="M201.16,134a2.33,2.33,0,0,1-1,1.81,1,1,0,0,1-.41.13.86.86,0,0,1-.11-.45,2.33,2.33,0,0,1,1-1.82,1.05,1.05,0,0,1,.41-.14A.93.93,0,0,1,201.16,134Z"/><path class="cls-14" d="M232.23,116.43a2.27,2.27,0,0,1-1,1.79l-2.88,1.67a1,1,0,0,1-.47.14.52.52,0,0,1-.44-.23,1,1,0,0,1-.13-.51,2.31,2.31,0,0,1,1-1.8l2.88-1.66a1.24,1.24,0,0,1,.3-.13l.16,0C232,115.68,232.23,116,232.23,116.43Z"/><path class="cls-12" d="M231.63,116.21a2.31,2.31,0,0,1-1,1.8l-2.89,1.66a.85.85,0,0,1-.3.13,1,1,0,0,1-.13-.51,2.31,2.31,0,0,1,1-1.8l2.88-1.66a1.24,1.24,0,0,1,.3-.13A.88.88,0,0,1,231.63,116.21Z"/></g></g></svg>