<svg xmlns="http://www.w3.org/2000/svg" xmlns:xlink="http://www.w3.org/1999/xlink" viewBox="0 0 72.81 139.08"><defs><style>.cls-1{fill:#b7b6e3;}.cls-2{fill:#919dd6;}.cls-3{fill:#ebebf1;}.cls-4{isolation:isolate;}.cls-5{clip-path:url(#clip-path);}.cls-6{clip-path:url(#clip-path-2);}.cls-7{fill:#dad9e8;}.cls-8{fill:#c4c3ec;}.cls-9{clip-path:url(#clip-path-3);}.cls-10{clip-path:url(#clip-path-4);}.cls-11{fill:#e4e3ee;}.cls-12{clip-path:url(#clip-path-5);}.cls-13{fill:#4cdead;}.cls-14{clip-path:url(#clip-path-6);}.cls-15{clip-path:url(#clip-path-7);}.cls-16{clip-path:url(#clip-path-8);}.cls-17{clip-path:url(#clip-path-9);}.cls-18{clip-path:url(#clip-path-10);}</style><clipPath id="clip-path"><path class="cls-1" d="M4.77,108.59c-.13-.08-.3-.18-.42-.27a4.38,4.38,0,0,1-.66-.55,5.49,5.49,0,0,1-1.1-1.5A7.1,7.1,0,0,1,2.1,105a7.72,7.72,0,0,1-.28-1.72,1.9,1.9,0,0,0,1.05,1.56A4.34,4.34,0,0,0,4.77,108.59Z"/></clipPath><clipPath id="clip-path-2"><path class="cls-1" d="M5.58,109.06l-.81-.47a4.34,4.34,0,0,1-1.9-3.72l.81.47A4.34,4.34,0,0,0,5.58,109.06Z"/></clipPath><clipPath id="clip-path-3"><path class="cls-2" d="M67.73,103.89c-.18.81-.41,1.89-.66,2.68a24.77,24.77,0,0,1-1,2.59,15.75,15.75,0,0,1-.9,1.73c-.22.36-.49.83-.72,1.18-.34.5-.81,1.15-1.18,1.63a28.27,28.27,0,0,1-3.42,3.64c-1.16,1-1.51,1.29-2.5,2-1.28.92-2.28,1.51-2.76,1.79,2.74-1.59,4.69-4.58,5.44-8.8C64.49,109.74,67.25,106.55,67.73,103.89Z"/></clipPath><clipPath id="clip-path-4"><path class="cls-2" d="M54.58,121.14,51.45,123c2.74-1.59,4.69-4.58,5.45-8.81L60,112.34C59.27,116.56,57.32,119.55,54.58,121.14Z"/></clipPath><clipPath id="clip-path-5"><path class="cls-2" d="M51.45,123c-.4.22-.93.53-1.34.74s-1.29.64-1.86.89a30.53,30.53,0,0,1-3,1.15c-.82.25-1.92.55-2.75.75-.51.12-1.19.22-1.7.31a24.12,24.12,0,0,1-3.18.28c-.6,0-1.41,0-2,0-.41,0-1-.09-1.37-.14a20.34,20.34,0,0,1-2.56-.51,23,23,0,0,1-5.53-2.29,2.63,2.63,0,0,1-1.3-2.47c6.53,3.77,12.14,1.64,13.33-5.07,3.42,2.69,11.8,1.62,18.72-2.4C56.14,118.38,54.19,121.37,51.45,123Z"/></clipPath><clipPath id="clip-path-6"><path class="cls-3" d="M67,42.58l3.47,2c-1.23-.72-2.93-.62-4.81.47l-3.47-2C64.08,42,65.78,41.86,67,42.58Z"/></clipPath><clipPath id="clip-path-7"><path class="cls-3" d="M60.9,61.08l-3.47-2c-1.21-.7-2-2.2-2-4.33A14.81,14.81,0,0,1,62.2,43.05l3.47,2a14.86,14.86,0,0,0-6.74,11.67C58.93,58.88,59.69,60.38,60.9,61.08Z"/></clipPath><clipPath id="clip-path-8"><path class="cls-1" d="M41,17v1.79a2.1,2.1,0,0,1-1.23,1.72,6.6,6.6,0,0,1-6,0,2.12,2.12,0,0,1-1.25-1.75V17a2.15,2.15,0,0,0,1.25,1.75,6.63,6.63,0,0,0,6,0A2.1,2.1,0,0,0,41,17Z"/></clipPath><clipPath id="clip-path-9"><path class="cls-1" d="M56.67,137.88c-.12-.08-.29-.18-.41-.27a5,5,0,0,1-.67-.55,5.79,5.79,0,0,1-1.09-1.49,6.79,6.79,0,0,1-.49-1.25,8.23,8.23,0,0,1-.29-1.72,1.94,1.94,0,0,0,1.06,1.56A4.36,4.36,0,0,0,56.67,137.88Z"/></clipPath><clipPath id="clip-path-10"><path class="cls-1" d="M57.48,138.35l-.81-.47a4.36,4.36,0,0,1-1.89-3.72l.81.47A4.34,4.34,0,0,0,57.48,138.35Z"/></clipPath></defs><g id="Layer_2" data-name="Layer 2"><g id="Layer_1-2" data-name="Layer 1"><path class="cls-3" d="M13.31,56.24c0-2.79-1.46-5.89-3.25-6.93l-.8-.46a1.85,1.85,0,0,0-1.92-.13A15.15,15.15,0,0,0,2.23,54,15,15,0,0,0,0,62.09a1.93,1.93,0,0,0,1.06,1.55l.81.46c0-.32,0-.65,0-1h0c0,.33,0,.66,0,1,1.78,1,5.19.65,7.61-.88A8.38,8.38,0,0,1,13.31,56.24Z"/><g class="cls-4"><g class="cls-4"><path class="cls-1" d="M4.77,108.59c-.13-.08-.3-.18-.42-.27a4.38,4.38,0,0,1-.66-.55,5.49,5.49,0,0,1-1.1-1.5A7.1,7.1,0,0,1,2.1,105a7.72,7.72,0,0,1-.28-1.72,1.9,1.9,0,0,0,1.05,1.56A4.34,4.34,0,0,0,4.77,108.59Z"/><g class="cls-5"><g class="cls-4"><path class="cls-1" d="M4.77,108.59a6.29,6.29,0,0,1-2.95-5.28,1.9,1.9,0,0,0,1.05,1.56A4.34,4.34,0,0,0,4.77,108.59Z"/></g></g></g><g class="cls-4"><path class="cls-1" d="M5.58,109.06l-.81-.47a4.34,4.34,0,0,1-1.9-3.72l.81.47A4.34,4.34,0,0,0,5.58,109.06Z"/><g class="cls-6"><g class="cls-4"><path class="cls-1" d="M5.58,109.06l-.81-.47a4.34,4.34,0,0,1-1.9-3.72l.81.47A4.34,4.34,0,0,0,5.58,109.06Z"/></g></g></g><g class="cls-4"><g class="cls-4"><path class="cls-2" d="M17.8,99.44c-.56,7-7.3,12.36-12.22,9.62a4.34,4.34,0,0,1-1.9-3.72c1.79,1,5.2.6,7.61-1,.08,1.27,1,1.74,2.16,1.08A4.75,4.75,0,0,0,15.59,102C17,101.24,17.76,100.3,17.8,99.44Z"/></g></g><g class="cls-4"><path class="cls-2" d="M15.59,102l1.56-43.27c1.42-.71,2.18-1.63,2.21-2.49l-.08,2.17-.07,2.16-.08,2.16-.08,2.16L19,67l-.07,2.16-.08,2.16-.08,2.16-.08,2.16-.08,2.16L18.51,80l-.08,2.16-.08,2.16-.08,2.16-.08,2.16-.07,2.16L18,92.94,18,95.1l-.08,2.15-.07,2.16C17.77,100.28,17,101.23,15.59,102Z"/></g><g class="cls-4"><g class="cls-4"><path class="cls-7" d="M1.08,63.64l1.79,41.23a1.94,1.94,0,0,1-1.06-1.59l-.09-2.06-.09-2.06L1.54,97.1,1.46,95,1.37,93l-.09-2.06-.09-2.06L1.1,86.8,1,84.74.92,82.68.83,80.62.74,78.56.65,76.5.56,74.43.47,72.37.38,70.31.29,68.25.2,66.19.11,64.13,0,62.06A1.92,1.92,0,0,0,1.08,63.64Z"/></g></g><g class="cls-4"><path class="cls-7" d="M9.33,48.81a.71.71,0,0,1-.15,0,1.82,1.82,0,0,0-1.84-.08L8,48.37,8.87,48l.65-.22,1-.23.64-.09c.31,0,.72,0,1,0l.6,0c.32.06.74.15,1.05.24l.56.2c.22.1.52.24.73.36C13.63,47.41,11.59,47.52,9.33,48.81Z"/></g><polygon class="cls-7" points="3.68 105.34 2.88 104.87 1.08 63.63 1.89 64.11 3.68 105.34"/><g class="cls-4"><path class="cls-8" d="M10.06,49.31l-.88-.51c2.27-1.28,4.45-1.39,5.93-.53l.81.47c-1.48-.86-3.52-.75-5.79.53Z"/></g><path class="cls-1" d="M13.31,56.24c2.2-1.28,4-.13,3.84,2.47-.52,14.49-1,28.88-1.56,43.27a4.75,4.75,0,0,1-2.14,3.46c-1.14.66-2.08.19-2.16-1.08C10.7,90.71,10.1,77,9.5,63.22A8.38,8.38,0,0,1,13.31,56.24Z"/><g class="cls-4"><path class="cls-7" d="M9.5,63.22l1.79,41.14c-2.41,1.58-5.82,2-7.61,1L1.89,64.1C3.67,65.14,7.08,64.75,9.5,63.22Z"/></g><path class="cls-3" d="M0,62.09c0-.22,0-.52,0-.75s0-.65,0-.92c0-.46.14-1.06.22-1.51a7.9,7.9,0,0,1,.2-.84,15.46,15.46,0,0,1,1.46-3.63,16.38,16.38,0,0,1,2.26-3.15,13.37,13.37,0,0,1,3.16-2.57,1.85,1.85,0,0,1,1.92.13C4.51,51.59.76,58.37,1.08,63.64A1.93,1.93,0,0,1,0,62.09Z"/><path class="cls-3" d="M9.5,63.22c-2.42,1.53-5.83,1.92-7.61.88-.32-5.26,3.43-12,8.17-14.79,1.79,1,3.24,4.14,3.25,6.93A8.38,8.38,0,0,0,9.5,63.22Z"/><path class="cls-8" d="M19.36,55c0-.31-.06-.73-.11-1a8.49,8.49,0,0,0-.7-2.28,7.59,7.59,0,0,0-.54-1c-.21-.29-.52-.66-.76-.93a8.08,8.08,0,0,0-.83-.72c-.14-.11-.35-.22-.5-.32-1.5-.87-3.56-.75-5.86.57,1.79,1,3.24,4.14,3.25,6.93,2.2-1.28,4-.13,3.84,2.47,1.4-.7,2.17-1.62,2.21-2.46C19.37,55.87,19.38,55.37,19.36,55Z"/></g><path class="cls-7" d="M13.31,56.24a9.76,9.76,0,0,0-2.05-5.87v.11a6.28,6.28,0,0,1-.83,2.17c-.16.27-.32.54-.49.81-.49.83-1,1.66-1.49,2.49L6.61,59l-1.5,2.51c-.14.22-.27.46-.41.68a2.48,2.48,0,0,1-2.11.88,2.55,2.55,0,0,1-1.71-.82,2,2,0,0,1-.26-.83,5.77,5.77,0,0,1-.1-1.1A8.71,8.71,0,0,1,.7,58.57a12.61,12.61,0,0,1,.52-1.89A16.6,16.6,0,0,1,2,54.79,15.54,15.54,0,0,1,3.13,53a12.54,12.54,0,0,1,1.29-1.6A10.84,10.84,0,0,1,5.9,50.09a7.8,7.8,0,0,1,1.6-.89,5.36,5.36,0,0,1,1.68-.4,1.82,1.82,0,0,0-1.84-.08c-.24.13-.54.34-.77.48L6,49.65l-.65.54-.56.52c-.18.17-.4.4-.56.58l-.51.58c-.15.18-.34.43-.48.61l-.45.63c-.13.2-.3.46-.42.66l-.39.66c-.12.21-.26.49-.36.69l-.33.7-.3.74-.25.72c-.08.24-.17.55-.23.79l-.18.74c-.05.26-.11.6-.15.85L0,60.42c0,.27,0,.65,0,.92s0,.53,0,.75a1.93,1.93,0,0,0,1.06,1.55l.81.46c1.78,1,5.19.65,7.61-.88A8.38,8.38,0,0,1,13.31,56.24Z"/><path class="cls-2" d="M21.69,121.51A31.67,31.67,0,0,1,11.1,111.1,35.32,35.32,0,0,1,5.69,97.17a1.94,1.94,0,0,0,1.43,1.45c1.15,8.06,6.73,16.65,13.26,20.42A2.66,2.66,0,0,0,21.69,121.51Z"/><path class="cls-2" d="M20.38,119l2.24,1.29a2.63,2.63,0,0,0,1.3,2.47l-.22-.13-.22-.13-.23-.13-.22-.13-.22-.13-.23-.13-.22-.13-.23-.12-.22-.13-.22-.13A2.66,2.66,0,0,1,20.38,119Z"/><path class="cls-2" d="M22.62,120.33l2.23,1.29a2.63,2.63,0,0,0,1.3,2.47l-.22-.13-.22-.13-.23-.13-.22-.13-.22-.13-.23-.13-.22-.13-.22-.13-.23-.12-.22-.13A2.63,2.63,0,0,1,22.62,120.33Z"/><path class="cls-2" d="M67.73,103.89c-.18.81-.41,1.89-.66,2.68a24.77,24.77,0,0,1-1,2.59,15.75,15.75,0,0,1-.9,1.73c-.22.36-.49.83-.72,1.18-.34.5-.81,1.15-1.18,1.63a28.27,28.27,0,0,1-3.42,3.64c-1.16,1-1.51,1.29-2.5,2-1.28.92-2.28,1.51-2.76,1.79,2.74-1.59,4.69-4.58,5.44-8.8C64.49,109.74,67.25,106.55,67.73,103.89Z"/><g class="cls-9"><g class="cls-4"><path class="cls-2" d="M67.73,103.89c-.57,2.7-2.31,10.89-13.15,17.25,2.74-1.59,4.69-4.58,5.44-8.8C64.49,109.74,67.25,106.55,67.73,103.89Z"/></g></g><path class="cls-1" d="M2.66,67.42l4.46,31.2a1.92,1.92,0,0,1-1.43-1.5l-.23-1.56L5.24,94,5,92.44l-.23-1.56-.22-1.56-.22-1.56L4.12,86.2,3.9,84.64l-.22-1.56-.23-1.56L3.23,80,3,78.4l-.22-1.56-.23-1.56-.22-1.56-.22-1.56L1.89,70.6,1.67,69l-.22-1.56-.23-1.56A2,2,0,0,0,2.66,67.42Z"/><path class="cls-2" d="M54.58,121.14,51.45,123c2.74-1.59,4.69-4.58,5.45-8.81L60,112.34C59.27,116.56,57.32,119.55,54.58,121.14Z"/><g class="cls-10"><g class="cls-4"><path class="cls-2" d="M56.9,114.15,60,112.34c-.75,4.22-2.7,7.21-5.44,8.8L51.45,123C54.19,121.37,56.14,118.38,56.9,114.15Z"/></g></g><path class="cls-11" d="M16.61,42.08C27.83,35.91,35,38.35,39.39,40.72c-2-1.19-6.29-.35-11.19,2.5C23.63,40.58,19.55,40.37,16.61,42.08Z"/><path class="cls-2" d="M51.45,123c-.4.22-.93.53-1.34.74s-1.29.64-1.86.89a30.53,30.53,0,0,1-3,1.15c-.82.25-1.92.55-2.75.75-.51.12-1.19.22-1.7.31a24.12,24.12,0,0,1-3.18.28c-.6,0-1.41,0-2,0-.41,0-1-.09-1.37-.14a20.34,20.34,0,0,1-2.56-.51,23,23,0,0,1-5.53-2.29,2.63,2.63,0,0,1-1.3-2.47c6.53,3.77,12.14,1.64,13.33-5.07,3.42,2.69,11.8,1.62,18.72-2.4C56.14,118.38,54.19,121.37,51.45,123Z"/><g class="cls-12"><path class="cls-2" d="M51.45,123a29.16,29.16,0,0,1-13.83,4.12,21.41,21.41,0,0,1-11.47-3,2.63,2.63,0,0,1-1.3-2.47c6.53,3.77,12.14,1.64,13.33-5.07,3.42,2.69,11.8,1.62,18.72-2.4C56.14,118.38,54.19,121.37,51.45,123Z"/></g><path class="cls-11" d="M13.49,43.9l3.12-1.82c2.94-1.71,7-1.5,11.59,1.14L25.07,45C20.5,42.4,16.42,42.19,13.49,43.9Z"/><path class="cls-7" d="M38.44,49.13,28.2,43.22c4.9-2.85,9.14-3.69,11.19-2.5L48.61,46l.51.29.51.3C47.58,45.45,43.34,46.28,38.44,49.13Z"/><path class="cls-7" d="M1.22,65.92c-.4-3.71-1.48-13.55,12.19-22,3-1.75,7.09-1.54,11.66,1.1-6.91,4-12.53,10.51-12.54,14.51-6.24-3.6-11,.17-9.87,7.87A2,2,0,0,1,1.22,65.92Z"/><polygon class="cls-7" points="25.07 45.04 28.2 43.22 38.44 49.13 35.31 50.95 25.07 45.04"/><path class="cls-1" d="M60,112.34l4.62-25.95c4.47-2.6,7.23-5.79,7.71-8.45l-.24,1.3-.23,1.3-.23,1.29-.23,1.3-.23,1.3L71,85.73,70.73,87l-.23,1.3-.23,1.3L70,90.92l-.24,1.29-.23,1.3-.23,1.3-.23,1.3-.23,1.29-.23,1.3-.23,1.3-.23,1.3L68,102.59l-.23,1.3C67.25,106.55,64.49,109.74,60,112.34Z"/><polygon class="cls-1" points="61.51 88.2 64.64 86.39 60.02 112.34 56.9 114.15 61.51 88.2"/><path class="cls-7" d="M48.68,55,38.44,49.13c4.9-2.85,9.14-3.68,11.19-2.5L58.85,52l1,.59C57.82,51.36,53.58,52.19,48.68,55Z"/><g class="cls-4"><path class="cls-7" d="M22.77,65.46,12.53,59.55c0-4,5.63-10.49,12.54-14.51L35.31,51C28.4,55,22.78,61.47,22.77,65.46Z"/></g><polygon class="cls-7" points="35.31 50.95 38.44 49.13 48.68 55.04 45.55 56.86 35.31 50.95"/><g class="cls-4"><path class="cls-1" d="M59.87,52.54a24,24,0,0,1,5.79,4.8,29,29,0,0,1,4.08,6c2.56,5.2,3.38,9.83,2.61,14.57-.48,2.66-3.24,5.85-7.71,8.45,1.86-10.45-5.79-25.48-16-31.35C53.58,52.19,57.82,51.36,59.87,52.54Z"/><path class="cls-1" d="M64.64,86.39a25.16,25.16,0,0,0-1.18-11.87l.35-.48c3.66-5.83.47-11.33-6.44-11.09A30.4,30.4,0,0,0,48.68,55c4.9-2.85,9.14-3.68,11.19-2.5l1.24.78c.4.29.94.66,1.33,1l1.12.94c.33.31.78.72,1.1,1.05l1,1.06,1,1.13.87,1.17c.25.36.58.84.82,1.21l.75,1.24c.21.38.5.89.69,1.28l.63,1.31c.17.4.4.93.56,1.33l.49,1.36c.12.42.3,1,.41,1.39l.34,1.39c.07.44.19,1,.25,1.47L72.58,73c0,.48.06,1.13.06,1.61L72.58,76c-.06.57-.14,1.33-.23,1.9C71.87,80.6,69.11,83.79,64.64,86.39Z"/><path class="cls-8" d="M64.64,86.39c.1-.52.16-1.06.21-1.6l.43-.26C80,74.94,67.83,55.69,59.45,54c-4.09-.83-8,1.29-9.27,2-.49-.34-1-.65-1.5-1,4.9-2.85,9.14-3.68,11.19-2.5l1.24.78c.4.29.94.66,1.33,1l1.12.94c.33.31.78.72,1.1,1.05l1,1.06,1,1.13.87,1.17c.25.36.58.84.82,1.21l.75,1.24c.21.38.5.89.69,1.28l.63,1.31c.17.4.4.93.56,1.33l.49,1.36c.12.42.3,1,.41,1.39l.34,1.39c.07.44.19,1,.25,1.47L72.58,73c0,.48.06,1.13.06,1.61L72.58,76c-.06.57-.14,1.33-.23,1.9C71.87,80.6,69.11,83.79,64.64,86.39Z"/></g><path class="cls-1" d="M38.18,116.55,42.8,90.6c3.42,2.69,11.8,1.62,18.71-2.4l-4.61,26C50,118.17,41.6,119.24,38.18,116.55Z"/><path class="cls-7" d="M33,71.37,22.77,65.46c0-4,5.63-10.49,12.54-14.51l10.24,5.91C38.64,60.88,33,67.38,33,71.37Z"/><g class="cls-4"><path class="cls-8" d="M45.55,56.86,48.68,55c.51.3,1,.61,1.5,1l-3.13,1.82C46.56,57.47,46.06,57.15,45.55,56.86Z"/><path class="cls-1" d="M47.05,57.81,50.18,56a31.69,31.69,0,0,1,7.18,7l-3.12,1.81A32.1,32.1,0,0,0,47.05,57.81Z"/><path class="cls-1" d="M54.24,64.76,57.36,63a38.86,38.86,0,0,1,6.1,11.57l-3.13,1.82A39.24,39.24,0,0,0,54.24,64.76Z"/><path class="cls-1" d="M60.33,76.34l3.13-1.82a26.68,26.68,0,0,1,1.39,10.27l-3.13,1.82A26.49,26.49,0,0,0,60.33,76.34Z"/><path class="cls-8" d="M61.72,86.61l3.13-1.82c0,.54-.11,1.08-.21,1.6L61.51,88.2A13.82,13.82,0,0,0,61.72,86.61Z"/></g><path class="cls-8" d="M33,71.37C39.25,75,43.94,84.18,42.8,90.6l-4.62,26c-1.19,6.71-6.8,8.84-13.33,5.07l-2.23-1.29L20.38,119c-6.53-3.77-12.11-12.36-13.26-20.42Q4.89,83,2.66,67.42c-1.1-7.7,3.63-11.47,9.87-7.87l10.24,5.91Z"/><g class="cls-4"><path class="cls-1" d="M33,71.37c0-4,5.63-10.49,12.54-14.51,10.17,5.87,17.82,20.9,16,31.34-6.91,4-15.29,5.09-18.71,2.4C43.94,84.18,39.25,75,33,71.37Z"/><path class="cls-1" d="M42.8,90.6C43.94,84.18,39.25,75,33,71.37c0-4,5.63-10.49,12.54-14.51a30.51,30.51,0,0,1,8.69,7.9l-.38,0c-11.46.86-11.45,10.13-5.37,15.5,4.11,3.63,9.85-1.19,11.84-3.94A25,25,0,0,1,61.51,88.2C54.6,92.22,46.22,93.29,42.8,90.6Z"/><path class="cls-8" d="M42.8,90.6C43.94,84.18,39.25,75,33,71.37c0-4,5.63-10.49,12.54-14.51.51.29,1,.61,1.5,1l-.43.25c-2.45,1.48-8,5.5-7.13,10.78.57,3.31,7.83,16.26,7.9,16.38C48.6,87.16,49.78,88.46,52,89c1.23.28,4.65.61,9.76-2.35a13.82,13.82,0,0,1-.21,1.59C54.6,92.22,46.22,93.29,42.8,90.6Z"/></g><path class="cls-1" d="M69.75,29.08a21.5,21.5,0,0,0-7.72-8c-2-1.13-6.32-.16-11.41,2.79.44.25.87.53,1.29.82L48.79,26.5a.18.18,0,0,0,.07.05c-.45-.31-.91-.6-1.37-.86C40.58,29.71,35,35.88,35,39.48c4.68,2.7,8.48,9.28,8.46,14.66,3.13,1.8,11.28,0,18.19-4l3.13-1.82c5.07-3,8.07-6.27,8.07-8.66A21.39,21.39,0,0,0,69.75,29.08Z"/><path class="cls-8" d="M11.52,52.42a21.6,21.6,0,0,1-7.72-8A21.9,21.9,0,0,1,.74,33.73a2.23,2.23,0,0,0,1.23,2c0,5.38,3.78,12,8.46,14.66A2.19,2.19,0,0,0,11.52,52.42Z"/><path class="cls-7" d="M2,30.21v5.52a2.21,2.21,0,0,1-1.23-2V28.21A2.2,2.2,0,0,0,2,30.21Z"/><path class="cls-11" d="M16.09,8.77C27,2.72,33.58,4.83,37.56,7c-1.93-1.12-6.31-.15-11.39,2.8C22.23,7.48,18.67,7.27,16.09,8.77Z"/><path class="cls-11" d="M13,10.58l3.13-1.81c2.58-1.5,6.14-1.29,10.08,1L23,11.57C19.1,9.3,15.54,9.09,13,10.58Z"/><path class="cls-8" d="M10.43,50.39,34.89,64.5a2.17,2.17,0,0,0,1.08,2l-2.44-1.41-2.45-1.42L28.64,62.3l-2.45-1.41-2.44-1.41L21.3,58.07l-2.44-1.42-2.45-1.41L14,53.83l-2.45-1.41A2.19,2.19,0,0,1,10.43,50.39Z"/><path class="cls-11" d="M.76,28.21c.09-2.59.38-10.48,12.2-17.63,2.58-1.49,6.14-1.28,10.08,1-6.91,4-12.53,10.19-12.54,13.79C5.82,22.65,2,24.83,2,30.21A2.2,2.2,0,0,1,.76,28.21Z"/><path class="cls-7" d="M64.72,53.83l0-5.51a23.19,23.19,0,0,0,6.85-5.62l0,5.52A22.92,22.92,0,0,1,64.72,53.83Z"/><path class="cls-7" d="M71.57,48.22l0-5.52a5.16,5.16,0,0,0,1.22-2.93v5.52A5.31,5.31,0,0,1,71.57,48.22Z"/><path class="cls-7" d="M50.62,23.87,26.17,9.75C31.25,6.8,35.63,5.83,37.58,7L40,8.37l2.45,1.41,2.44,1.42,2.45,1.41L49.8,14l2.45,1.41,2.45,1.41,2.44,1.41,2.45,1.42L62,21.08C60.08,20,55.71,20.92,50.62,23.87Z"/><polygon class="cls-7" points="61.61 50.14 64.74 48.32 64.72 53.83 61.59 55.65 61.61 50.14"/><polygon class="cls-7" points="23.04 11.57 26.17 9.75 50.62 23.87 47.49 25.69 23.04 11.57"/><g class="cls-4"><path class="cls-7" d="M71.59,42.7c3.33-8-4.06-16.52-4.13-16.6-2.71-3.06-6.14-5.5-12.94-2.69a22.53,22.53,0,0,0-2.6,1.28c-.43-.29-.86-.57-1.3-.82C55.71,20.92,60.08,20,62,21.08l.95.59c.3.21.71.49,1,.71l.85.7c.26.23.61.53.86.77l.77.78c.22.25.53.58.75.84l.69.85c.2.27.47.62.66.9l.62.92.57.94.53,1c.15.3.35.69.49,1l.44,1c.12.31.29.72.4,1l.34,1c.09.32.22.75.3,1.08l.23,1.08c.06.34.14.79.18,1.13l.11,1.11c0,.37,0,.86,0,1.23A5.16,5.16,0,0,1,71.59,42.7Z"/></g><g class="cls-4"><path class="cls-7" d="M47.49,25.69l3.13-1.82c.44.25.87.53,1.3.82L48.79,26.5C48.36,26.21,47.93,25.94,47.49,25.69Z"/></g><path class="cls-7" d="M43.41,59.65V54.14c1.56.9,4.35.91,7.62.19l0,5.52C47.76,60.56,45,60.55,43.41,59.65Z"/><path class="cls-7" d="M51,59.85l0-5.52a37.88,37.88,0,0,0,10.57-4.19l0,5.51A37.68,37.68,0,0,1,51,59.85Z"/><path class="cls-7" d="M35,39.48,10.5,25.36c0-3.6,5.63-9.77,12.54-13.79L47.49,25.69C40.58,29.71,35,35.88,35,39.48Z"/><path d="M35,39.48c4.68,2.7,8.48,9.28,8.46,14.66,0,1.84,0,3.67,0,5.51,0,5.39-3.84,7.56-8.52,4.85L10.43,50.39C5.75,47.69,2,41.11,2,35.73c0-1.84,0-3.68,0-5.52,0-5.38,3.84-7.56,8.52-4.85Z"/><g class="cls-4"><path class="cls-7" d="M43.42,54.14c0-5.38-3.78-12-8.46-14.66,0-3.6,5.62-9.77,12.53-13.79.44.25.87.52,1.3.81l-.44.26c-2.52,1.51-8.34,5.56-7.94,10.29.25,2.93,6.3,13.52,6.36,13.62,1,1.62,1.94,3,3.92,3.58l.35.08C47.77,55.05,45,55,43.42,54.14Z"/></g><path class="cls-8" d="M64.72,53.83l-3.13,1.82c-6.91,4-15.05,5.81-18.18,4,0,5.39-3.84,7.56-8.52,4.85a2.17,2.17,0,0,0,1.08,2c2.54,1.35,9.28,4.95,21.49-1.81l3.13-1.82h0a28.28,28.28,0,0,0,8.76-7.63,16.64,16.64,0,0,0,3.45-10C72.79,47.56,69.79,50.89,64.72,53.83Z"/><path class="cls-13" d="M15.89,36.36c0,2.1-1.48,3-3.29,1.9a7.27,7.27,0,0,1-3.29-5.7c0-2.1,1.47-3,3.29-1.9A7.29,7.29,0,0,1,15.89,36.36Z"/><path class="cls-13" d="M34.32,47c0,2.1-1.47,3-3.29,1.9a7.27,7.27,0,0,1-3.29-5.7c0-2.1,1.47-3,3.29-1.9A7.27,7.27,0,0,1,34.32,47Z"/><path class="cls-13" d="M18.53,48.65c0,.05,0,.1,0,.16a7.29,7.29,0,0,0,3.29,5.7c1.82,1.05,3.29.2,3.29-1.9v-.17Z"/><g class="cls-4"><g class="cls-4"><path class="cls-3" d="M67,42.58l3.47,2c-1.23-.72-2.93-.62-4.81.47l-3.47-2C64.08,42,65.78,41.86,67,42.58Z"/><g class="cls-14"><g class="cls-4"><path class="cls-3" d="M65.67,45.07l-3.47-2c1.88-1.09,3.58-1.19,4.81-.47l3.47,2C69.25,43.88,67.55,44,65.67,45.07Z"/></g></g></g><g class="cls-4"><path class="cls-3" d="M60.9,61.08l-3.47-2c-1.21-.7-2-2.2-2-4.33A14.81,14.81,0,0,1,62.2,43.05l3.47,2a14.86,14.86,0,0,0-6.74,11.67C58.93,58.88,59.69,60.38,60.9,61.08Z"/><g class="cls-15"><g class="cls-4"><path class="cls-3" d="M60.9,61.08l-3.47-2a4.39,4.39,0,0,1-1.94-3.64l3.47,2A4.41,4.41,0,0,0,60.9,61.08Z"/><path class="cls-3" d="M59,57.43l-3.47-2q0-.35,0-.69A15.11,15.11,0,0,1,60.7,44.1l3.47,2a15.09,15.09,0,0,0-5.24,10.62Q58.93,57.1,59,57.43Z"/><path class="cls-3" d="M64.17,46.12l-3.47-2a9.9,9.9,0,0,1,1.5-1.05l3.47,2A11,11,0,0,0,64.17,46.12Z"/></g></g></g><path class="cls-1" d="M65.67,45.07c3.74-2.16,6.77-.43,6.78,3.87a14.82,14.82,0,0,1-6.74,11.67c-3.73,2.16-6.77.42-6.78-3.87A14.86,14.86,0,0,1,65.67,45.07Z"/><path class="cls-13" d="M65.68,48.47c2.1-1.21,3.8-.24,3.81,2.17a8.36,8.36,0,0,1-3.79,6.57c-2.09,1.21-3.8.23-3.81-2.18A8.34,8.34,0,0,1,65.68,48.47Z"/></g><g class="cls-4"><g class="cls-4"><path class="cls-1" d="M41,17v1.79a2.1,2.1,0,0,1-1.23,1.72,6.6,6.6,0,0,1-6,0,2.12,2.12,0,0,1-1.25-1.75V17a2.15,2.15,0,0,0,1.25,1.75,6.63,6.63,0,0,0,6,0A2.1,2.1,0,0,0,41,17Z"/><g class="cls-16"><g class="cls-4"><path class="cls-1" d="M41,17v1.79a2.1,2.1,0,0,1-1.23,1.72,5.61,5.61,0,0,1-2.21.67V19.43a5.67,5.67,0,0,0,2.2-.67A2.1,2.1,0,0,0,41,17Z"/><path class="cls-1" d="M37.53,19.43v1.78a6.4,6.4,0,0,1-3.77-.67,4.86,4.86,0,0,1-.41-.27V18.48a4.21,4.21,0,0,0,.41.28A6.51,6.51,0,0,0,37.53,19.43Z"/><path class="cls-1" d="M33.34,18.48v1.79a1.92,1.92,0,0,1-.84-1.48V17A1.89,1.89,0,0,0,33.34,18.48Z"/></g></g></g><path class="cls-3" d="M39.71,15.29c1.66,1,1.67,2.51,0,3.47a6.63,6.63,0,0,1-6,0c-1.66-1-1.66-2.51,0-3.47A6.57,6.57,0,0,1,39.71,15.29Z"/></g><path class="cls-2" d="M36.68,18a1.23,1.23,0,0,1-1.23-1.23V3.16a1.23,1.23,0,0,1,2.46,0V16.77A1.23,1.23,0,0,1,36.68,18Z"/><path class="cls-2" d="M40.83,4.05a4.06,4.06,0,1,1-4.06-4A4.06,4.06,0,0,1,40.83,4.05Z"/><path class="cls-3" d="M65.22,85.53c0-2.79-1.46-5.89-3.25-6.92l-.81-.47A1.83,1.83,0,0,0,59.25,78a15.94,15.94,0,0,0-7.32,13.38A1.91,1.91,0,0,0,53,92.93l.8.47c0-.33,0-.66,0-1h0c0,.33,0,.66,0,1,1.79,1,5.2.64,7.62-.89A8.38,8.38,0,0,1,65.22,85.53Z"/><g class="cls-4"><g class="cls-4"><path class="cls-1" d="M56.67,137.88c-.12-.08-.29-.18-.41-.27a5,5,0,0,1-.67-.55,5.79,5.79,0,0,1-1.09-1.49,6.79,6.79,0,0,1-.49-1.25,8.23,8.23,0,0,1-.29-1.72,1.94,1.94,0,0,0,1.06,1.56A4.36,4.36,0,0,0,56.67,137.88Z"/><g class="cls-17"><g class="cls-4"><path class="cls-1" d="M56.67,137.88a6.34,6.34,0,0,1-3-5.28,1.94,1.94,0,0,0,1.06,1.56A4.36,4.36,0,0,0,56.67,137.88Z"/></g></g></g><g class="cls-4"><path class="cls-1" d="M57.48,138.35l-.81-.47a4.36,4.36,0,0,1-1.89-3.72l.81.47A4.34,4.34,0,0,0,57.48,138.35Z"/><g class="cls-18"><g class="cls-4"><path class="cls-1" d="M57.48,138.35l-.81-.47a4.36,4.36,0,0,1-1.89-3.72l.81.47A4.34,4.34,0,0,0,57.48,138.35Z"/></g></g></g><g class="cls-4"><g class="cls-4"><path class="cls-2" d="M69.71,128.73c-.56,7.05-7.31,12.36-12.23,9.62a4.34,4.34,0,0,1-1.89-3.72c1.78,1,5.19.6,7.61-1,.08,1.26,1,1.73,2.16,1.07a4.75,4.75,0,0,0,2.14-3.46C68.9,130.53,69.67,129.59,69.71,128.73Z"/></g></g><g class="cls-4"><path class="cls-2" d="M67.5,131.27,69.06,88c1.41-.71,2.18-1.63,2.21-2.49l-.08,2.17-.08,2.16L71,92,71,94.16l-.08,2.16-.08,2.16-.08,2.16-.07,2.16L70.57,105l-.08,2.16-.08,2.16-.07,2.15-.08,2.16-.08,2.16-.08,2.16L70,120.07,70,122.23l-.08,2.16-.08,2.15-.08,2.16C69.68,129.57,68.92,130.52,67.5,131.27Z"/></g><g class="cls-4"><g class="cls-4"><path class="cls-7" d="M53,92.93l1.79,41.23a1.92,1.92,0,0,1-1.06-1.59l-.09-2.06-.09-2.06-.09-2.06-.09-2.06-.09-2.06-.09-2.06-.09-2.06L53,116.09,52.91,114,52.82,112l-.09-2.06-.09-2.06-.09-2.06-.09-2.06-.08-2.07-.09-2.06-.09-2.06-.09-2.06L52,93.42l-.09-2.06A1.89,1.89,0,0,0,53,92.93Z"/></g></g><g class="cls-4"><path class="cls-7" d="M61.23,78.1a.66.66,0,0,1-.14,0A1.84,1.84,0,0,0,59.24,78l.66-.35.88-.39.64-.22c.3-.07.68-.17,1-.23l.63-.09c.31,0,.73,0,1,0l.61.05c.32.06.74.15,1,.24l.56.2c.22.11.51.24.73.36C65.54,76.7,63.5,76.81,61.23,78.1Z"/></g><polygon class="cls-7" points="55.59 134.63 54.78 134.16 52.99 92.93 53.79 93.39 55.59 134.63"/><g class="cls-4"><path class="cls-8" d="M62,78.61l-.88-.52c2.27-1.28,4.45-1.39,5.93-.53l.8.47c-1.47-.86-3.51-.75-5.78.54Z"/></g><path class="cls-1" d="M65.22,85.53c2.2-1.28,4-.13,3.84,2.47-.53,14.49-1,28.88-1.56,43.27a4.75,4.75,0,0,1-2.14,3.46c-1.14.66-2.08.19-2.16-1.07q-.89-20.49-1.79-41.15A8.38,8.38,0,0,1,65.22,85.53Z"/><g class="cls-4"><path class="cls-7" d="M61.41,92.51l1.79,41.15c-2.42,1.57-5.83,2-7.61,1L53.79,93.4C55.58,94.43,59,94,61.41,92.51Z"/></g><path class="cls-3" d="M51.93,91.39c0-.23,0-.53,0-.75s0-.66,0-.93c0-.46.14-1.06.22-1.51,0-.26.13-.59.19-.84a15.66,15.66,0,0,1,1.47-3.63,16.41,16.41,0,0,1,2.25-3.15A13.48,13.48,0,0,1,59.25,78a1.83,1.83,0,0,1,1.91.13c-4.74,2.74-8.49,9.52-8.17,14.79A1.91,1.91,0,0,1,51.93,91.39Z"/><path class="cls-3" d="M61.41,92.51C59,94,55.58,94.43,53.79,93.4c-.31-5.27,3.43-12.05,8.18-14.79,1.79,1,3.24,4.13,3.25,6.92A8.38,8.38,0,0,0,61.41,92.51Z"/><path class="cls-8" d="M71.27,84.28a8.77,8.77,0,0,0-.12-1A8.18,8.18,0,0,0,70.46,81a9.06,9.06,0,0,0-.54-1,11.16,11.16,0,0,0-.77-.93,7.14,7.14,0,0,0-.83-.72c-.14-.11-.35-.22-.5-.32-1.49-.87-3.55-.75-5.85.58,1.79,1,3.24,4.13,3.25,6.92,2.2-1.28,4-.13,3.84,2.47,1.4-.7,2.17-1.62,2.21-2.46C71.28,85.16,71.29,84.66,71.27,84.28Z"/></g><path class="cls-7" d="M65.22,85.53a9.82,9.82,0,0,0-2-5.87.41.41,0,0,1,0,.11,6.26,6.26,0,0,1-.82,2.17l-.49.81-1.49,2.49c-.62,1-1.23,2.05-1.84,3.07L57,90.82c-.13.22-.26.46-.41.68a2.46,2.46,0,0,1-2.1.88,2.55,2.55,0,0,1-1.71-.82,1.84,1.84,0,0,1-.26-.83,5.77,5.77,0,0,1-.1-1.1,8.71,8.71,0,0,1,.17-1.77A14,14,0,0,1,53.13,86,15.65,15.65,0,0,1,54,84.08,15.46,15.46,0,0,1,55,82.29a14.41,14.41,0,0,1,1.3-1.6,10.06,10.06,0,0,1,1.47-1.3,7.64,7.64,0,0,1,1.6-.9,5.49,5.49,0,0,1,1.69-.4A1.82,1.82,0,0,0,59.25,78l-.78.48-.61.45-.65.54-.57.52-.56.58-.5.58-.49.61-.45.63-.42.66-.39.66c-.11.21-.25.49-.36.69l-.32.71c-.1.21-.21.51-.3.73l-.26.73-.23.78-.17.74c-.06.26-.11.6-.15.85l-.09.76c0,.27,0,.65,0,.93l0,.75A1.91,1.91,0,0,0,53,92.93l.8.47c1.79,1,5.2.64,7.62-.89A8.38,8.38,0,0,1,65.22,85.53Z"/></g></g></svg>