<svg xmlns="http://www.w3.org/2000/svg" xmlns:xlink="http://www.w3.org/1999/xlink" viewBox="0 0 139.93 113.2"><defs><style>.cls-1{fill:url(#New_Gradient_Swatch_2);}.cls-2{fill:url(#New_Gradient_Swatch_2-2);}.cls-3{fill:#fff;}</style><linearGradient id="New_Gradient_Swatch_2" y1="52.15" x2="87.65" y2="52.15" gradientUnits="userSpaceOnUse"><stop offset="0" stop-color="#7ddab7"/><stop offset="0.3" stop-color="#8de9c8"/><stop offset="0.71" stop-color="#9ff9da"/><stop offset="1" stop-color="#a5ffe1"/></linearGradient><linearGradient id="New_Gradient_Swatch_2-2" x1="52.23" y1="61.05" x2="139.93" y2="61.05" xlink:href="#New_Gradient_Swatch_2"/></defs><g id="Layer_2" data-name="Layer 2"><g id="OBJECTS"><path class="cls-1" d="M42.79,104l-.41.14a5,5,0,0,1-4.16-.67,56.13,56.13,0,0,1-20.6-25.29L7.39,82A5,5,0,1,1,3.84,72.7l10.79-4.11A56.28,56.28,0,0,1,14,48.29L6.78,51a5,5,0,0,1-3.56-9.35L17.1,36.4A56.51,56.51,0,0,1,83.89,1.77a5,5,0,0,1,3.32,6.89L81.67,21a5,5,0,0,1-2.78,2.63L25.08,44.07a46.49,46.49,0,0,0-1,20.92l34.32-13a5,5,0,0,1,6.34,6.73L45.58,101.36A5,5,0,0,1,42.79,104ZM27,74.6A46.2,46.2,0,0,0,39.05,91.48L50.7,65.58Zm4-43.45L73.4,15l2.09-4.67A46.54,46.54,0,0,0,30.94,31.15Z"/><path class="cls-2" d="M90.05,109.5a56.24,56.24,0,0,1-34,1.94,5,5,0,0,1-3.33-6.9l5.54-12.33A5,5,0,0,1,61,89.59l53.8-20.46a46.34,46.34,0,0,0,1-20.92l-34.33,13a5,5,0,0,1-6.33-6.72l19.19-42.7a5,5,0,0,1,7.36-2.09,56.23,56.23,0,0,1,20.6,25.3l10.89-4.14a5,5,0,1,1,3.55,9.35l-11.46,4.35a56.06,56.06,0,0,1,.66,20.3l7.2-2.74a5,5,0,1,1,3.55,9.35L122.78,76.8A56.48,56.48,0,0,1,90.05,109.5Zm-25.66-6.64a46.54,46.54,0,0,0,44.55-20.8L66.49,98.2Zm24.8-55.24,23.73-9a46.22,46.22,0,0,0-12.09-16.88Z"/><path class="cls-3" d="M66.6,32.39a5.76,5.76,0,0,0-3.69,4.9l-60,22.83a2.5,2.5,0,1,0,1.78,4.67L64.68,42a5.77,5.77,0,1,0,1.92-9.57Z"/><path class="cls-3" d="M70.81,37a2.31,2.31,0,1,1-3-1.34A2.33,2.33,0,0,1,70.81,37Z"/><path class="cls-3" d="M135.25,48.41l-60,22.83A5.76,5.76,0,1,0,77,75.91l60-22.82a2.5,2.5,0,0,0-1.77-4.68Z"/><path class="cls-3" d="M73.4,74.6a2.32,2.32,0,1,1-3-1.34A2.32,2.32,0,0,1,73.4,74.6Z"/></g></g></svg>